M48
;GenerationSoftware,Autodesk,EAGLE,9.1.1*%
;CreationDate,2018-08-14T10:46:33Z*%
FMAT,2
ICI,OFF
METRIC,TZ,000.000
T3C0.305
T2C0.889
T1C3.000
%
G90
M71
T1
X2540Y5000
X22860Y5000
T2
X6350Y1500
X8890Y1500
X11430Y1500
X13970Y1500
X16510Y1500
X19050Y1500
T3
X10160Y940
X7671Y940
X12649Y889
X8357Y10617
X4216Y10439
X12421Y11633
X16929Y11163
X12421Y6071
X17120Y12217
X13183Y12065
X16027Y15723
X14326Y15748
X5334Y10566
X18158Y12011
X14402Y10490
X15291Y3505
X6675Y8611
M30