G04 EAGLE Gerber RS-274X export*
G75*
%MOMM*%
%FSLAX34Y34*%
%LPD*%
%AMOC8*
5,1,8,0,0,1.08239X$1,22.5*%
G01*
%ADD10C,0.222250*%
%ADD11R,1.400000X1.400000*%
%ADD12R,1.350000X0.600000*%
%ADD13R,2.000000X1.200000*%
%ADD14R,1.200000X0.400000*%
%ADD15R,1.000000X0.400000*%
%ADD16R,1.143000X0.889000*%
%ADD17R,1.524000X1.524000*%
%ADD18C,1.524000*%
%ADD19C,0.609600*%
%ADD20C,0.177800*%
%ADD21C,0.304800*%
%ADD22C,0.203200*%

G36*
X53144Y5216D02*
X53144Y5216D01*
X53202Y5214D01*
X53284Y5236D01*
X53368Y5248D01*
X53421Y5271D01*
X53477Y5286D01*
X53550Y5329D01*
X53627Y5364D01*
X53672Y5402D01*
X53722Y5431D01*
X53780Y5493D01*
X53844Y5547D01*
X53876Y5596D01*
X53916Y5639D01*
X53955Y5714D01*
X54002Y5784D01*
X54019Y5840D01*
X54046Y5892D01*
X54057Y5960D01*
X54087Y6055D01*
X54090Y6155D01*
X54101Y6223D01*
X54101Y23357D01*
X55143Y24399D01*
X68705Y24399D01*
X68792Y24411D01*
X68880Y24414D01*
X68932Y24431D01*
X68987Y24439D01*
X69067Y24474D01*
X69150Y24501D01*
X69189Y24529D01*
X69246Y24555D01*
X69360Y24651D01*
X69423Y24696D01*
X106241Y61514D01*
X108101Y63374D01*
X119627Y63374D01*
X119714Y63386D01*
X119801Y63389D01*
X119854Y63406D01*
X119909Y63414D01*
X119988Y63449D01*
X120072Y63476D01*
X120111Y63504D01*
X120168Y63530D01*
X120281Y63626D01*
X120345Y63671D01*
X120660Y63986D01*
X120678Y64010D01*
X120700Y64029D01*
X120763Y64123D01*
X120831Y64213D01*
X120841Y64241D01*
X120858Y64265D01*
X120892Y64373D01*
X120932Y64479D01*
X120935Y64508D01*
X120944Y64536D01*
X120946Y64649D01*
X120956Y64762D01*
X120950Y64791D01*
X120951Y64820D01*
X120922Y64930D01*
X120900Y65041D01*
X120886Y65067D01*
X120879Y65095D01*
X120821Y65193D01*
X120769Y65293D01*
X120749Y65315D01*
X120734Y65340D01*
X120651Y65417D01*
X120573Y65499D01*
X120548Y65514D01*
X120526Y65534D01*
X120426Y65586D01*
X120328Y65643D01*
X120299Y65650D01*
X120273Y65664D01*
X120196Y65677D01*
X120052Y65713D01*
X119990Y65711D01*
X119942Y65719D01*
X112583Y65719D01*
X112543Y65760D01*
X112473Y65812D01*
X112409Y65872D01*
X112360Y65898D01*
X112315Y65931D01*
X112234Y65962D01*
X112156Y66002D01*
X112108Y66010D01*
X112050Y66032D01*
X111902Y66044D01*
X111825Y66057D01*
X95581Y66057D01*
X95523Y66049D01*
X95465Y66051D01*
X95383Y66029D01*
X95299Y66017D01*
X95246Y65994D01*
X95190Y65979D01*
X95117Y65936D01*
X95040Y65901D01*
X94995Y65863D01*
X94945Y65834D01*
X94887Y65772D01*
X94823Y65718D01*
X94791Y65669D01*
X94751Y65626D01*
X94712Y65551D01*
X94665Y65481D01*
X94648Y65425D01*
X94621Y65373D01*
X94610Y65305D01*
X94580Y65210D01*
X94577Y65110D01*
X94566Y65042D01*
X94566Y64178D01*
X93524Y63136D01*
X80620Y63136D01*
X79578Y64178D01*
X79578Y74542D01*
X80620Y75584D01*
X93524Y75584D01*
X94566Y74542D01*
X94566Y73678D01*
X94574Y73620D01*
X94572Y73562D01*
X94594Y73480D01*
X94606Y73396D01*
X94629Y73343D01*
X94644Y73287D01*
X94687Y73214D01*
X94722Y73137D01*
X94760Y73092D01*
X94789Y73042D01*
X94851Y72984D01*
X94905Y72920D01*
X94954Y72888D01*
X94997Y72848D01*
X95072Y72809D01*
X95142Y72762D01*
X95198Y72745D01*
X95250Y72718D01*
X95318Y72707D01*
X95413Y72677D01*
X95513Y72674D01*
X95581Y72663D01*
X110526Y72663D01*
X110584Y72671D01*
X110642Y72669D01*
X110724Y72691D01*
X110808Y72703D01*
X110861Y72726D01*
X110917Y72741D01*
X110990Y72784D01*
X111067Y72819D01*
X111112Y72857D01*
X111162Y72886D01*
X111220Y72948D01*
X111284Y73002D01*
X111316Y73051D01*
X111356Y73094D01*
X111395Y73169D01*
X111442Y73239D01*
X111459Y73295D01*
X111486Y73347D01*
X111497Y73415D01*
X111527Y73510D01*
X111530Y73610D01*
X111541Y73678D01*
X111541Y82235D01*
X112583Y83277D01*
X128057Y83277D01*
X129099Y82235D01*
X129099Y66761D01*
X127759Y65422D01*
X127755Y65416D01*
X127712Y65380D01*
X127696Y65355D01*
X127674Y65335D01*
X127617Y65237D01*
X127591Y65197D01*
X127589Y65195D01*
X127588Y65194D01*
X127554Y65143D01*
X127545Y65115D01*
X127531Y65090D01*
X127503Y64980D01*
X127468Y64872D01*
X127468Y64842D01*
X127461Y64814D01*
X127464Y64701D01*
X127461Y64588D01*
X127469Y64559D01*
X127470Y64530D01*
X127504Y64422D01*
X127533Y64313D01*
X127548Y64287D01*
X127557Y64259D01*
X127603Y64195D01*
X127678Y64068D01*
X127724Y64025D01*
X127752Y63986D01*
X129033Y62705D01*
X129033Y61356D01*
X129037Y61327D01*
X129034Y61298D01*
X129057Y61187D01*
X129073Y61075D01*
X129085Y61048D01*
X129090Y61019D01*
X129142Y60919D01*
X129189Y60816D01*
X129208Y60793D01*
X129221Y60767D01*
X129299Y60685D01*
X129372Y60599D01*
X129397Y60582D01*
X129417Y60561D01*
X129515Y60504D01*
X129609Y60441D01*
X129637Y60432D01*
X129662Y60417D01*
X129772Y60389D01*
X129880Y60355D01*
X129910Y60354D01*
X129938Y60347D01*
X130051Y60351D01*
X130164Y60348D01*
X130193Y60355D01*
X130222Y60356D01*
X130330Y60391D01*
X130439Y60420D01*
X130465Y60435D01*
X130493Y60444D01*
X130556Y60489D01*
X130684Y60565D01*
X130727Y60611D01*
X130766Y60639D01*
X140045Y69918D01*
X140097Y69988D01*
X140157Y70051D01*
X140183Y70101D01*
X140216Y70145D01*
X140247Y70227D01*
X140287Y70304D01*
X140295Y70352D01*
X140317Y70411D01*
X140329Y70558D01*
X140342Y70636D01*
X140342Y75084D01*
X140334Y75142D01*
X140336Y75200D01*
X140314Y75282D01*
X140302Y75366D01*
X140279Y75419D01*
X140264Y75475D01*
X140221Y75548D01*
X140186Y75625D01*
X140148Y75670D01*
X140119Y75720D01*
X140057Y75778D01*
X140003Y75842D01*
X139954Y75874D01*
X139911Y75914D01*
X139836Y75953D01*
X139766Y76000D01*
X139710Y76017D01*
X139658Y76044D01*
X139590Y76055D01*
X139495Y76085D01*
X139395Y76088D01*
X139327Y76099D01*
X137273Y76099D01*
X136231Y77141D01*
X136231Y78192D01*
X136219Y78278D01*
X136216Y78366D01*
X136199Y78418D01*
X136191Y78473D01*
X136156Y78553D01*
X136129Y78636D01*
X136101Y78676D01*
X136075Y78733D01*
X135979Y78846D01*
X135934Y78910D01*
X129119Y85724D01*
X129119Y93704D01*
X129111Y93762D01*
X129113Y93820D01*
X129091Y93902D01*
X129079Y93986D01*
X129056Y94039D01*
X129041Y94095D01*
X128998Y94168D01*
X128963Y94245D01*
X128925Y94290D01*
X128896Y94340D01*
X128834Y94398D01*
X128780Y94462D01*
X128731Y94494D01*
X128688Y94534D01*
X128613Y94573D01*
X128543Y94620D01*
X128487Y94637D01*
X128435Y94664D01*
X128367Y94675D01*
X128272Y94705D01*
X128172Y94708D01*
X128104Y94719D01*
X116633Y94719D01*
X116546Y94707D01*
X116459Y94704D01*
X116406Y94687D01*
X116351Y94679D01*
X116271Y94644D01*
X116188Y94617D01*
X116149Y94589D01*
X116092Y94563D01*
X115978Y94467D01*
X115915Y94422D01*
X104587Y83094D01*
X104549Y83044D01*
X104547Y83042D01*
X104540Y83032D01*
X104535Y83025D01*
X104475Y82961D01*
X104449Y82911D01*
X104416Y82867D01*
X104397Y82817D01*
X104389Y82806D01*
X104380Y82775D01*
X104345Y82707D01*
X104337Y82660D01*
X104315Y82601D01*
X104311Y82559D01*
X104304Y82535D01*
X104301Y82446D01*
X104290Y82376D01*
X104290Y79479D01*
X102597Y77786D01*
X93535Y77786D01*
X91842Y79479D01*
X91842Y88541D01*
X92334Y89032D01*
X92351Y89056D01*
X92374Y89075D01*
X92436Y89169D01*
X92504Y89259D01*
X92515Y89287D01*
X92531Y89311D01*
X92565Y89419D01*
X92606Y89525D01*
X92608Y89554D01*
X92617Y89582D01*
X92620Y89696D01*
X92629Y89808D01*
X92624Y89837D01*
X92624Y89866D01*
X92596Y89976D01*
X92573Y90087D01*
X92560Y90113D01*
X92552Y90141D01*
X92495Y90239D01*
X92442Y90339D01*
X92422Y90361D01*
X92407Y90386D01*
X92325Y90463D01*
X92247Y90545D01*
X92221Y90560D01*
X92200Y90580D01*
X92099Y90632D01*
X92001Y90689D01*
X91973Y90696D01*
X91947Y90710D01*
X91869Y90723D01*
X91726Y90759D01*
X91663Y90757D01*
X91616Y90765D01*
X89009Y90765D01*
X88951Y90757D01*
X88893Y90759D01*
X88811Y90737D01*
X88727Y90725D01*
X88674Y90702D01*
X88618Y90687D01*
X88545Y90644D01*
X88468Y90609D01*
X88423Y90571D01*
X88373Y90542D01*
X88315Y90480D01*
X88251Y90426D01*
X88219Y90377D01*
X88179Y90334D01*
X88140Y90259D01*
X88093Y90189D01*
X88076Y90133D01*
X88049Y90081D01*
X88038Y90013D01*
X88008Y89918D01*
X88005Y89818D01*
X87994Y89750D01*
X87994Y89537D01*
X86301Y87844D01*
X77239Y87844D01*
X75546Y89537D01*
X75546Y95200D01*
X75534Y95287D01*
X75531Y95374D01*
X75514Y95427D01*
X75506Y95482D01*
X75471Y95562D01*
X75444Y95645D01*
X75416Y95684D01*
X75390Y95741D01*
X75294Y95855D01*
X75249Y95918D01*
X74487Y96680D01*
X74463Y96698D01*
X74444Y96720D01*
X74350Y96783D01*
X74260Y96851D01*
X74232Y96862D01*
X74208Y96878D01*
X74100Y96912D01*
X73994Y96952D01*
X73965Y96955D01*
X73937Y96964D01*
X73823Y96967D01*
X73711Y96976D01*
X73682Y96970D01*
X73653Y96971D01*
X73543Y96942D01*
X73432Y96920D01*
X73406Y96907D01*
X73378Y96899D01*
X73280Y96841D01*
X73180Y96789D01*
X73158Y96769D01*
X73133Y96754D01*
X73056Y96671D01*
X72974Y96593D01*
X72959Y96568D01*
X72939Y96547D01*
X72887Y96446D01*
X72830Y96348D01*
X72823Y96320D01*
X72809Y96294D01*
X72796Y96216D01*
X72760Y96073D01*
X72762Y96010D01*
X72754Y95962D01*
X72754Y89537D01*
X71876Y88660D01*
X71824Y88590D01*
X71764Y88526D01*
X71738Y88476D01*
X71705Y88432D01*
X71674Y88351D01*
X71634Y88273D01*
X71626Y88225D01*
X71604Y88167D01*
X71592Y88019D01*
X71579Y87942D01*
X71579Y86099D01*
X71587Y86041D01*
X71585Y85983D01*
X71607Y85901D01*
X71619Y85817D01*
X71642Y85764D01*
X71657Y85708D01*
X71700Y85635D01*
X71735Y85558D01*
X71773Y85513D01*
X71802Y85463D01*
X71864Y85405D01*
X71918Y85341D01*
X71967Y85309D01*
X72010Y85269D01*
X72085Y85230D01*
X72155Y85183D01*
X72211Y85166D01*
X72263Y85139D01*
X72331Y85128D01*
X72426Y85098D01*
X72526Y85095D01*
X72594Y85084D01*
X73204Y85084D01*
X74246Y84042D01*
X74246Y73678D01*
X73204Y72636D01*
X60300Y72636D01*
X59258Y73678D01*
X59258Y84042D01*
X60300Y85084D01*
X60910Y85084D01*
X60968Y85092D01*
X61026Y85090D01*
X61108Y85112D01*
X61192Y85124D01*
X61245Y85147D01*
X61301Y85162D01*
X61374Y85205D01*
X61451Y85240D01*
X61496Y85278D01*
X61546Y85307D01*
X61604Y85369D01*
X61668Y85423D01*
X61700Y85472D01*
X61740Y85515D01*
X61779Y85590D01*
X61826Y85660D01*
X61843Y85716D01*
X61870Y85768D01*
X61881Y85836D01*
X61911Y85931D01*
X61914Y86031D01*
X61925Y86099D01*
X61925Y87498D01*
X61918Y87547D01*
X61919Y87559D01*
X61914Y87576D01*
X61913Y87584D01*
X61910Y87672D01*
X61893Y87724D01*
X61885Y87779D01*
X61850Y87859D01*
X61823Y87942D01*
X61795Y87981D01*
X61769Y88039D01*
X61673Y88152D01*
X61628Y88216D01*
X60306Y89537D01*
X60306Y98599D01*
X61999Y100292D01*
X68424Y100292D01*
X68454Y100296D01*
X68483Y100293D01*
X68594Y100316D01*
X68706Y100332D01*
X68733Y100344D01*
X68762Y100349D01*
X68862Y100402D01*
X68965Y100448D01*
X68988Y100467D01*
X69014Y100481D01*
X69096Y100558D01*
X69182Y100631D01*
X69199Y100656D01*
X69220Y100676D01*
X69277Y100774D01*
X69340Y100868D01*
X69349Y100896D01*
X69364Y100922D01*
X69392Y101031D01*
X69426Y101139D01*
X69427Y101169D01*
X69434Y101197D01*
X69430Y101310D01*
X69433Y101423D01*
X69426Y101452D01*
X69425Y101481D01*
X69390Y101589D01*
X69361Y101698D01*
X69346Y101724D01*
X69337Y101752D01*
X69291Y101816D01*
X69216Y101943D01*
X69180Y101976D01*
X69177Y101982D01*
X69165Y101993D01*
X69142Y102025D01*
X69103Y102064D01*
X69033Y102117D01*
X68970Y102176D01*
X68920Y102202D01*
X68876Y102235D01*
X68794Y102266D01*
X68716Y102306D01*
X68669Y102314D01*
X68610Y102336D01*
X68463Y102348D01*
X68385Y102361D01*
X57284Y102361D01*
X57197Y102349D01*
X57110Y102346D01*
X57057Y102329D01*
X57002Y102321D01*
X56923Y102286D01*
X56839Y102259D01*
X56800Y102231D01*
X56743Y102205D01*
X56630Y102109D01*
X56566Y102064D01*
X55339Y100837D01*
X51341Y100837D01*
X48513Y103665D01*
X48513Y105399D01*
X48501Y105486D01*
X48498Y105573D01*
X48481Y105626D01*
X48473Y105681D01*
X48438Y105761D01*
X48411Y105844D01*
X48383Y105883D01*
X48357Y105940D01*
X48261Y106054D01*
X48216Y106117D01*
X35813Y118520D01*
X35813Y139290D01*
X38045Y141522D01*
X43174Y146651D01*
X43183Y146663D01*
X43188Y146667D01*
X43202Y146687D01*
X43226Y146721D01*
X43286Y146784D01*
X43312Y146834D01*
X43345Y146878D01*
X43376Y146960D01*
X43416Y147037D01*
X43424Y147085D01*
X43446Y147144D01*
X43458Y147291D01*
X43471Y147369D01*
X43471Y148737D01*
X43478Y148743D01*
X43513Y148790D01*
X43555Y148830D01*
X43598Y148903D01*
X43649Y148970D01*
X43669Y149025D01*
X43699Y149076D01*
X43720Y149157D01*
X43750Y149236D01*
X43755Y149294D01*
X43769Y149351D01*
X43767Y149435D01*
X43774Y149519D01*
X43762Y149577D01*
X43760Y149635D01*
X43734Y149716D01*
X43718Y149798D01*
X43691Y149850D01*
X43673Y149906D01*
X43633Y149962D01*
X43587Y150050D01*
X43518Y150123D01*
X43478Y150179D01*
X43217Y150440D01*
X42882Y151019D01*
X42709Y151666D01*
X42709Y153501D01*
X51516Y153501D01*
X51574Y153509D01*
X51632Y153507D01*
X51714Y153529D01*
X51797Y153541D01*
X51851Y153564D01*
X51907Y153579D01*
X51980Y153622D01*
X51999Y153631D01*
X52045Y153600D01*
X52101Y153583D01*
X52153Y153556D01*
X52221Y153545D01*
X52316Y153515D01*
X52416Y153512D01*
X52484Y153501D01*
X61291Y153501D01*
X61291Y151666D01*
X61118Y151019D01*
X60783Y150440D01*
X60522Y150179D01*
X60487Y150132D01*
X60445Y150092D01*
X60402Y150019D01*
X60351Y149952D01*
X60330Y149897D01*
X60301Y149847D01*
X60280Y149765D01*
X60250Y149686D01*
X60245Y149628D01*
X60231Y149571D01*
X60233Y149487D01*
X60226Y149403D01*
X60238Y149346D01*
X60240Y149287D01*
X60266Y149207D01*
X60282Y149124D01*
X60309Y149072D01*
X60327Y149017D01*
X60367Y148960D01*
X60413Y148872D01*
X60482Y148800D01*
X60522Y148743D01*
X60529Y148737D01*
X60529Y141263D01*
X59983Y140718D01*
X59948Y140671D01*
X59906Y140631D01*
X59863Y140558D01*
X59813Y140491D01*
X59792Y140436D01*
X59762Y140386D01*
X59741Y140304D01*
X59711Y140225D01*
X59706Y140167D01*
X59692Y140110D01*
X59695Y140026D01*
X59688Y139942D01*
X59699Y139884D01*
X59701Y139826D01*
X59727Y139746D01*
X59744Y139663D01*
X59771Y139611D01*
X59789Y139555D01*
X59829Y139499D01*
X59875Y139411D01*
X59943Y139338D01*
X59983Y139282D01*
X60529Y138737D01*
X60529Y138683D01*
X60537Y138625D01*
X60535Y138567D01*
X60557Y138485D01*
X60569Y138401D01*
X60592Y138348D01*
X60607Y138292D01*
X60650Y138219D01*
X60685Y138142D01*
X60723Y138097D01*
X60752Y138047D01*
X60814Y137989D01*
X60868Y137925D01*
X60917Y137893D01*
X60960Y137853D01*
X61035Y137814D01*
X61105Y137767D01*
X61161Y137750D01*
X61213Y137723D01*
X61281Y137712D01*
X61376Y137682D01*
X61476Y137679D01*
X61544Y137668D01*
X118581Y137668D01*
X130475Y125774D01*
X130544Y125722D01*
X130608Y125662D01*
X130658Y125636D01*
X130702Y125603D01*
X130784Y125572D01*
X130861Y125532D01*
X130909Y125524D01*
X130968Y125502D01*
X131115Y125490D01*
X131193Y125477D01*
X133825Y125477D01*
X135197Y124105D01*
X135221Y124087D01*
X135240Y124065D01*
X135334Y124002D01*
X135424Y123934D01*
X135452Y123924D01*
X135476Y123907D01*
X135584Y123873D01*
X135690Y123833D01*
X135719Y123830D01*
X135747Y123821D01*
X135861Y123819D01*
X135973Y123809D01*
X136002Y123815D01*
X136031Y123814D01*
X136141Y123843D01*
X136252Y123865D01*
X136278Y123879D01*
X136306Y123886D01*
X136404Y123944D01*
X136504Y123996D01*
X136526Y124016D01*
X136551Y124031D01*
X136628Y124114D01*
X136710Y124192D01*
X136725Y124217D01*
X136745Y124239D01*
X136797Y124339D01*
X136854Y124437D01*
X136861Y124466D01*
X136875Y124492D01*
X136888Y124569D01*
X136924Y124713D01*
X136922Y124775D01*
X136930Y124823D01*
X136930Y125499D01*
X138623Y127192D01*
X147685Y127192D01*
X149378Y125499D01*
X149378Y116437D01*
X147685Y114744D01*
X138623Y114744D01*
X136930Y116437D01*
X136930Y116477D01*
X136926Y116506D01*
X136929Y116536D01*
X136906Y116646D01*
X136890Y116759D01*
X136878Y116786D01*
X136873Y116814D01*
X136821Y116915D01*
X136774Y117018D01*
X136755Y117041D01*
X136742Y117067D01*
X136664Y117149D01*
X136591Y117235D01*
X136566Y117251D01*
X136546Y117273D01*
X136448Y117330D01*
X136354Y117393D01*
X136326Y117402D01*
X136301Y117416D01*
X136191Y117444D01*
X136083Y117479D01*
X136054Y117479D01*
X136025Y117487D01*
X135912Y117483D01*
X135799Y117486D01*
X135770Y117478D01*
X135741Y117477D01*
X135633Y117443D01*
X135524Y117414D01*
X135498Y117399D01*
X135470Y117390D01*
X135406Y117344D01*
X135279Y117269D01*
X135236Y117223D01*
X135197Y117195D01*
X134791Y116789D01*
X134739Y116719D01*
X134679Y116655D01*
X134653Y116606D01*
X134620Y116562D01*
X134589Y116480D01*
X134549Y116402D01*
X134541Y116355D01*
X134519Y116296D01*
X134507Y116149D01*
X134494Y116071D01*
X134494Y101601D01*
X134498Y101572D01*
X134495Y101543D01*
X134518Y101432D01*
X134534Y101320D01*
X134546Y101293D01*
X134551Y101264D01*
X134604Y101164D01*
X134650Y101061D01*
X134669Y101038D01*
X134682Y101012D01*
X134760Y100930D01*
X134833Y100844D01*
X134858Y100827D01*
X134878Y100806D01*
X134976Y100749D01*
X135070Y100686D01*
X135098Y100677D01*
X135123Y100662D01*
X135233Y100634D01*
X135341Y100600D01*
X135371Y100599D01*
X135399Y100592D01*
X135512Y100596D01*
X135625Y100593D01*
X135654Y100600D01*
X135683Y100601D01*
X135791Y100636D01*
X135900Y100665D01*
X135926Y100680D01*
X135954Y100689D01*
X136017Y100734D01*
X136145Y100810D01*
X136188Y100856D01*
X136227Y100884D01*
X138894Y103551D01*
X138946Y103621D01*
X139006Y103684D01*
X139032Y103734D01*
X139065Y103778D01*
X139096Y103860D01*
X139136Y103937D01*
X139144Y103985D01*
X139166Y104044D01*
X139178Y104191D01*
X139191Y104269D01*
X139191Y106901D01*
X142019Y109729D01*
X146017Y109729D01*
X148845Y106901D01*
X148845Y102903D01*
X146017Y100075D01*
X143385Y100075D01*
X143298Y100063D01*
X143211Y100060D01*
X143158Y100043D01*
X143103Y100035D01*
X143023Y100000D01*
X142940Y99973D01*
X142901Y99945D01*
X142844Y99919D01*
X142731Y99823D01*
X142667Y99778D01*
X141279Y98390D01*
X141261Y98366D01*
X141239Y98347D01*
X141176Y98253D01*
X141108Y98163D01*
X141097Y98135D01*
X141081Y98111D01*
X141047Y98003D01*
X141006Y97897D01*
X141004Y97868D01*
X140995Y97840D01*
X140992Y97726D01*
X140983Y97614D01*
X140989Y97585D01*
X140988Y97556D01*
X141017Y97446D01*
X141039Y97335D01*
X141052Y97309D01*
X141060Y97281D01*
X141117Y97183D01*
X141170Y97083D01*
X141190Y97061D01*
X141205Y97036D01*
X141287Y96959D01*
X141366Y96877D01*
X141391Y96862D01*
X141412Y96842D01*
X141513Y96790D01*
X141611Y96733D01*
X141639Y96726D01*
X141665Y96712D01*
X141743Y96699D01*
X141886Y96663D01*
X141949Y96665D01*
X141996Y96657D01*
X146892Y96657D01*
X146913Y96660D01*
X146934Y96658D01*
X147053Y96680D01*
X147173Y96697D01*
X147193Y96705D01*
X147214Y96709D01*
X147280Y96744D01*
X147329Y96766D01*
X147821Y96701D01*
X147918Y96702D01*
X148015Y96695D01*
X148054Y96704D01*
X148105Y96704D01*
X148270Y96753D01*
X148342Y96770D01*
X148398Y96793D01*
X148541Y96734D01*
X148571Y96726D01*
X148599Y96712D01*
X148676Y96699D01*
X148817Y96663D01*
X148881Y96665D01*
X148930Y96657D01*
X149079Y96657D01*
X149120Y96636D01*
X149154Y96630D01*
X149230Y96601D01*
X149242Y96600D01*
X149252Y96596D01*
X149314Y96594D01*
X149385Y96588D01*
X149451Y96543D01*
X149489Y96531D01*
X149534Y96506D01*
X149613Y96487D01*
X149631Y96463D01*
X149694Y96402D01*
X149749Y96334D01*
X149795Y96303D01*
X149834Y96264D01*
X149911Y96222D01*
X149983Y96173D01*
X150029Y96159D01*
X150084Y96129D01*
X150229Y96098D01*
X150304Y96075D01*
X150327Y96072D01*
X150350Y96045D01*
X150384Y96024D01*
X150421Y95988D01*
X150492Y95949D01*
X150504Y95921D01*
X150548Y95846D01*
X150584Y95766D01*
X150620Y95724D01*
X150648Y95677D01*
X150712Y95617D01*
X150769Y95550D01*
X150810Y95524D01*
X150855Y95481D01*
X150987Y95414D01*
X151053Y95372D01*
X151075Y95363D01*
X151090Y95331D01*
X151118Y95302D01*
X151143Y95258D01*
X151269Y95140D01*
X151319Y95086D01*
X151331Y95076D01*
X151377Y94998D01*
X151384Y94992D01*
X151389Y94985D01*
X151487Y94895D01*
X151584Y94804D01*
X151592Y94799D01*
X151599Y94793D01*
X151719Y94735D01*
X151837Y94674D01*
X151846Y94672D01*
X151854Y94668D01*
X151986Y94645D01*
X152116Y94619D01*
X152125Y94620D01*
X152134Y94618D01*
X152267Y94632D01*
X152399Y94644D01*
X152408Y94647D01*
X152417Y94648D01*
X152540Y94698D01*
X152665Y94746D01*
X152672Y94752D01*
X152680Y94755D01*
X152785Y94837D01*
X152891Y94918D01*
X152896Y94925D01*
X152903Y94931D01*
X153069Y95162D01*
X153076Y95180D01*
X153085Y95192D01*
X153141Y95309D01*
X153779Y96109D01*
X154579Y96747D01*
X155501Y97191D01*
X156498Y97419D01*
X160995Y97419D01*
X160995Y94877D01*
X157010Y94877D01*
X156988Y94873D01*
X156976Y94873D01*
X156972Y94872D01*
X156945Y94873D01*
X156557Y94822D01*
X156514Y94807D01*
X156431Y94788D01*
X156069Y94638D01*
X156032Y94613D01*
X155956Y94573D01*
X155645Y94335D01*
X155616Y94301D01*
X155553Y94243D01*
X155315Y93932D01*
X155296Y93893D01*
X152864Y93893D01*
X152784Y93882D01*
X152706Y93881D01*
X152679Y93873D01*
X152649Y93870D01*
X152616Y93858D01*
X152582Y93854D01*
X152509Y93821D01*
X152434Y93798D01*
X152410Y93782D01*
X152382Y93772D01*
X152354Y93751D01*
X152323Y93737D01*
X152262Y93686D01*
X152196Y93643D01*
X152177Y93621D01*
X152153Y93603D01*
X152135Y93578D01*
X152106Y93554D01*
X152062Y93488D01*
X152010Y93428D01*
X151984Y93371D01*
X151955Y93332D01*
X151953Y93324D01*
X151948Y93317D01*
X151924Y93242D01*
X151891Y93170D01*
X151883Y93115D01*
X151865Y93062D01*
X151865Y93054D01*
X151862Y93046D01*
X151860Y92967D01*
X151848Y92889D01*
X151856Y92841D01*
X151853Y92778D01*
X151855Y92770D01*
X151855Y92762D01*
X151855Y92761D01*
X151888Y92634D01*
X151900Y92557D01*
X151913Y92531D01*
X151920Y92502D01*
X151925Y92495D01*
X151927Y92486D01*
X151980Y92396D01*
X152027Y92302D01*
X152047Y92281D01*
X152062Y92255D01*
X152068Y92250D01*
X152072Y92242D01*
X152149Y92170D01*
X152220Y92093D01*
X152245Y92077D01*
X152266Y92058D01*
X152273Y92054D01*
X152279Y92047D01*
X152373Y92000D01*
X152462Y91945D01*
X152491Y91937D01*
X152517Y91924D01*
X152524Y91922D01*
X152532Y91918D01*
X152588Y91909D01*
X152625Y91901D01*
X152737Y91871D01*
X152767Y91871D01*
X152795Y91865D01*
X152832Y91868D01*
X152864Y91863D01*
X155295Y91863D01*
X155315Y91824D01*
X155553Y91513D01*
X155587Y91484D01*
X155645Y91421D01*
X155956Y91183D01*
X155997Y91163D01*
X156069Y91118D01*
X156431Y90968D01*
X156475Y90959D01*
X156557Y90934D01*
X156945Y90883D01*
X156973Y90885D01*
X157010Y90879D01*
X166510Y90879D01*
X166518Y90880D01*
X166527Y90879D01*
X166615Y90900D01*
X166705Y90918D01*
X166712Y90923D01*
X166720Y90925D01*
X166793Y90979D01*
X166869Y91031D01*
X166873Y91038D01*
X166880Y91043D01*
X166927Y91121D01*
X166976Y91198D01*
X166977Y91207D01*
X166982Y91214D01*
X167009Y91378D01*
X167009Y94378D01*
X167008Y94384D01*
X167009Y94390D01*
X167009Y94392D01*
X167009Y94395D01*
X166988Y94483D01*
X166970Y94573D01*
X166965Y94580D01*
X166963Y94588D01*
X166909Y94661D01*
X166857Y94737D01*
X166850Y94741D01*
X166845Y94748D01*
X166767Y94795D01*
X166690Y94844D01*
X166681Y94845D01*
X166674Y94850D01*
X166510Y94877D01*
X163025Y94877D01*
X163025Y97419D01*
X167005Y97419D01*
X167063Y97427D01*
X167121Y97425D01*
X167203Y97447D01*
X167287Y97459D01*
X167340Y97482D01*
X167396Y97497D01*
X167469Y97540D01*
X167546Y97575D01*
X167591Y97613D01*
X167641Y97642D01*
X167699Y97704D01*
X167763Y97758D01*
X167795Y97807D01*
X167835Y97850D01*
X167874Y97925D01*
X167921Y97995D01*
X167938Y98051D01*
X167965Y98103D01*
X167976Y98171D01*
X168006Y98266D01*
X168009Y98366D01*
X168020Y98434D01*
X168020Y105790D01*
X168012Y105848D01*
X168014Y105906D01*
X167992Y105988D01*
X167980Y106072D01*
X167957Y106125D01*
X167942Y106181D01*
X167899Y106254D01*
X167864Y106331D01*
X167826Y106376D01*
X167797Y106426D01*
X167735Y106484D01*
X167681Y106548D01*
X167632Y106580D01*
X167589Y106620D01*
X167514Y106659D01*
X167444Y106706D01*
X167388Y106723D01*
X167357Y106739D01*
X164463Y109633D01*
X164463Y112265D01*
X164451Y112352D01*
X164448Y112440D01*
X164431Y112492D01*
X164423Y112547D01*
X164388Y112627D01*
X164361Y112710D01*
X164333Y112749D01*
X164307Y112806D01*
X164211Y112920D01*
X164166Y112983D01*
X162902Y114247D01*
X162833Y114299D01*
X162769Y114359D01*
X162719Y114385D01*
X162675Y114418D01*
X162593Y114449D01*
X162516Y114489D01*
X162468Y114497D01*
X162410Y114519D01*
X162262Y114531D01*
X162184Y114544D01*
X155623Y114544D01*
X153930Y116237D01*
X153930Y125299D01*
X155623Y126992D01*
X162184Y126992D01*
X162271Y127004D01*
X162358Y127007D01*
X162411Y127024D01*
X162466Y127032D01*
X162546Y127067D01*
X162629Y127094D01*
X162668Y127122D01*
X162725Y127148D01*
X162838Y127244D01*
X162902Y127289D01*
X163664Y128051D01*
X163682Y128075D01*
X163704Y128094D01*
X163767Y128188D01*
X163835Y128278D01*
X163846Y128306D01*
X163862Y128330D01*
X163896Y128438D01*
X163937Y128544D01*
X163939Y128573D01*
X163948Y128601D01*
X163951Y128715D01*
X163960Y128827D01*
X163954Y128856D01*
X163955Y128885D01*
X163926Y128995D01*
X163904Y129106D01*
X163891Y129132D01*
X163883Y129160D01*
X163826Y129258D01*
X163773Y129358D01*
X163753Y129380D01*
X163738Y129405D01*
X163655Y129482D01*
X163577Y129564D01*
X163552Y129579D01*
X163531Y129599D01*
X163430Y129651D01*
X163332Y129708D01*
X163304Y129715D01*
X163278Y129729D01*
X163200Y129742D01*
X163057Y129778D01*
X162994Y129776D01*
X162947Y129784D01*
X155623Y129784D01*
X153930Y131477D01*
X153930Y140539D01*
X155623Y142232D01*
X156471Y142232D01*
X156529Y142240D01*
X156587Y142238D01*
X156669Y142260D01*
X156753Y142272D01*
X156806Y142295D01*
X156862Y142310D01*
X156935Y142353D01*
X157012Y142388D01*
X157057Y142426D01*
X157107Y142455D01*
X157165Y142517D01*
X157229Y142571D01*
X157261Y142620D01*
X157301Y142663D01*
X157340Y142738D01*
X157387Y142808D01*
X157404Y142864D01*
X157431Y142916D01*
X157442Y142984D01*
X157472Y143079D01*
X157475Y143179D01*
X157486Y143247D01*
X157486Y152767D01*
X157474Y152854D01*
X157471Y152941D01*
X157454Y152994D01*
X157446Y153049D01*
X157411Y153128D01*
X157384Y153212D01*
X157356Y153251D01*
X157330Y153308D01*
X157234Y153421D01*
X157189Y153485D01*
X155447Y155227D01*
X155447Y159225D01*
X158275Y162053D01*
X162273Y162053D01*
X165101Y159225D01*
X165101Y155227D01*
X163119Y153245D01*
X163067Y153175D01*
X163007Y153111D01*
X162981Y153062D01*
X162948Y153018D01*
X162917Y152936D01*
X162877Y152858D01*
X162869Y152811D01*
X162847Y152752D01*
X162835Y152605D01*
X162822Y152527D01*
X162822Y143247D01*
X162829Y143194D01*
X162828Y143165D01*
X162829Y143162D01*
X162828Y143131D01*
X162850Y143049D01*
X162862Y142965D01*
X162885Y142912D01*
X162900Y142856D01*
X162943Y142783D01*
X162978Y142706D01*
X163016Y142661D01*
X163045Y142611D01*
X163107Y142553D01*
X163161Y142489D01*
X163210Y142457D01*
X163253Y142417D01*
X163328Y142378D01*
X163398Y142331D01*
X163454Y142314D01*
X163506Y142287D01*
X163574Y142276D01*
X163669Y142246D01*
X163769Y142243D01*
X163837Y142232D01*
X164685Y142232D01*
X166378Y140539D01*
X166378Y133215D01*
X166382Y133186D01*
X166379Y133157D01*
X166402Y133046D01*
X166418Y132934D01*
X166430Y132907D01*
X166435Y132878D01*
X166487Y132778D01*
X166534Y132675D01*
X166553Y132652D01*
X166566Y132626D01*
X166644Y132544D01*
X166717Y132458D01*
X166742Y132441D01*
X166762Y132420D01*
X166860Y132363D01*
X166954Y132300D01*
X166982Y132291D01*
X167007Y132276D01*
X167117Y132248D01*
X167225Y132214D01*
X167255Y132213D01*
X167283Y132206D01*
X167396Y132210D01*
X167509Y132207D01*
X167538Y132214D01*
X167567Y132215D01*
X167675Y132250D01*
X167784Y132279D01*
X167810Y132294D01*
X167838Y132303D01*
X167901Y132348D01*
X168029Y132424D01*
X168072Y132470D01*
X168111Y132498D01*
X191421Y155808D01*
X193174Y157561D01*
X193226Y157630D01*
X193286Y157694D01*
X193312Y157744D01*
X193345Y157788D01*
X193376Y157870D01*
X193416Y157947D01*
X193424Y157995D01*
X193446Y158054D01*
X193458Y158201D01*
X193471Y158279D01*
X193471Y158737D01*
X194513Y159779D01*
X209487Y159779D01*
X210529Y158737D01*
X210529Y151263D01*
X209983Y150718D01*
X209948Y150671D01*
X209906Y150631D01*
X209863Y150558D01*
X209813Y150491D01*
X209792Y150436D01*
X209762Y150386D01*
X209741Y150304D01*
X209711Y150225D01*
X209706Y150167D01*
X209692Y150110D01*
X209695Y150026D01*
X209688Y149942D01*
X209699Y149884D01*
X209701Y149826D01*
X209727Y149746D01*
X209744Y149663D01*
X209771Y149611D01*
X209789Y149555D01*
X209829Y149499D01*
X209875Y149411D01*
X209943Y149338D01*
X209983Y149282D01*
X210529Y148737D01*
X210529Y141263D01*
X209983Y140718D01*
X209948Y140671D01*
X209906Y140631D01*
X209863Y140558D01*
X209813Y140491D01*
X209792Y140436D01*
X209762Y140386D01*
X209741Y140304D01*
X209711Y140225D01*
X209706Y140167D01*
X209692Y140110D01*
X209695Y140026D01*
X209688Y139942D01*
X209699Y139884D01*
X209701Y139826D01*
X209727Y139746D01*
X209744Y139663D01*
X209771Y139611D01*
X209789Y139555D01*
X209829Y139499D01*
X209875Y139411D01*
X209943Y139338D01*
X209983Y139282D01*
X210529Y138737D01*
X210529Y131263D01*
X210522Y131257D01*
X210487Y131210D01*
X210445Y131170D01*
X210402Y131097D01*
X210351Y131030D01*
X210331Y130975D01*
X210301Y130924D01*
X210280Y130843D01*
X210250Y130764D01*
X210245Y130706D01*
X210231Y130649D01*
X210233Y130565D01*
X210226Y130481D01*
X210238Y130423D01*
X210240Y130365D01*
X210266Y130284D01*
X210282Y130202D01*
X210309Y130150D01*
X210327Y130094D01*
X210367Y130038D01*
X210413Y129950D01*
X210482Y129877D01*
X210522Y129821D01*
X210783Y129560D01*
X211118Y128981D01*
X211291Y128334D01*
X211291Y126499D01*
X202484Y126499D01*
X202426Y126491D01*
X202368Y126493D01*
X202286Y126471D01*
X202203Y126459D01*
X202149Y126436D01*
X202093Y126421D01*
X202020Y126378D01*
X201943Y126343D01*
X201899Y126305D01*
X201848Y126276D01*
X201791Y126214D01*
X201726Y126160D01*
X201694Y126111D01*
X201654Y126068D01*
X201615Y125993D01*
X201569Y125923D01*
X201551Y125867D01*
X201524Y125815D01*
X201513Y125747D01*
X201483Y125652D01*
X201480Y125552D01*
X201476Y125525D01*
X201458Y125523D01*
X201400Y125524D01*
X201318Y125503D01*
X201234Y125491D01*
X201181Y125467D01*
X201125Y125453D01*
X201052Y125409D01*
X200975Y125375D01*
X200930Y125337D01*
X200880Y125307D01*
X200822Y125246D01*
X200758Y125191D01*
X200726Y125143D01*
X200686Y125100D01*
X200647Y125025D01*
X200600Y124955D01*
X200583Y124899D01*
X200556Y124847D01*
X200545Y124779D01*
X200515Y124684D01*
X200512Y124584D01*
X200501Y124516D01*
X200501Y119459D01*
X194916Y119459D01*
X194269Y119632D01*
X193690Y119967D01*
X193217Y120440D01*
X192882Y121019D01*
X192709Y121666D01*
X192709Y124119D01*
X192705Y124149D01*
X192708Y124178D01*
X192685Y124289D01*
X192669Y124401D01*
X192657Y124428D01*
X192652Y124457D01*
X192599Y124557D01*
X192553Y124660D01*
X192534Y124683D01*
X192521Y124709D01*
X192443Y124791D01*
X192370Y124877D01*
X192345Y124894D01*
X192325Y124915D01*
X192227Y124972D01*
X192133Y125035D01*
X192105Y125044D01*
X192080Y125059D01*
X191970Y125086D01*
X191862Y125121D01*
X191832Y125122D01*
X191804Y125129D01*
X191691Y125125D01*
X191578Y125128D01*
X191549Y125121D01*
X191520Y125120D01*
X191412Y125085D01*
X191303Y125056D01*
X191277Y125041D01*
X191249Y125032D01*
X191185Y124987D01*
X191058Y124911D01*
X191015Y124865D01*
X190976Y124837D01*
X189412Y123273D01*
X186702Y120563D01*
X186650Y120494D01*
X186590Y120430D01*
X186564Y120380D01*
X186531Y120336D01*
X186500Y120254D01*
X186460Y120176D01*
X186452Y120129D01*
X186430Y120070D01*
X186418Y119923D01*
X186405Y119845D01*
X186405Y118111D01*
X185178Y116884D01*
X185126Y116814D01*
X185066Y116750D01*
X185040Y116701D01*
X185007Y116657D01*
X184976Y116575D01*
X184936Y116497D01*
X184928Y116450D01*
X184906Y116391D01*
X184894Y116244D01*
X184881Y116166D01*
X184881Y87329D01*
X184889Y87271D01*
X184887Y87213D01*
X184909Y87131D01*
X184921Y87047D01*
X184944Y86994D01*
X184959Y86938D01*
X185002Y86865D01*
X185037Y86788D01*
X185075Y86743D01*
X185104Y86693D01*
X185166Y86635D01*
X185220Y86571D01*
X185269Y86539D01*
X185312Y86499D01*
X185387Y86460D01*
X185457Y86413D01*
X185513Y86396D01*
X185565Y86369D01*
X185633Y86358D01*
X185728Y86328D01*
X185828Y86325D01*
X185896Y86314D01*
X186109Y86314D01*
X187802Y84621D01*
X187802Y75559D01*
X186109Y73866D01*
X184912Y73866D01*
X184854Y73858D01*
X184796Y73860D01*
X184714Y73838D01*
X184630Y73826D01*
X184577Y73803D01*
X184521Y73788D01*
X184448Y73745D01*
X184371Y73710D01*
X184326Y73672D01*
X184276Y73643D01*
X184218Y73581D01*
X184154Y73527D01*
X184122Y73478D01*
X184082Y73435D01*
X184043Y73360D01*
X183996Y73290D01*
X183979Y73234D01*
X183952Y73182D01*
X183941Y73114D01*
X183911Y73019D01*
X183908Y72919D01*
X183897Y72851D01*
X183897Y64418D01*
X170532Y51053D01*
X155445Y51053D01*
X155358Y51041D01*
X155271Y51038D01*
X155218Y51021D01*
X155163Y51013D01*
X155083Y50978D01*
X155000Y50951D01*
X154961Y50923D01*
X154904Y50897D01*
X154790Y50801D01*
X154727Y50756D01*
X123341Y19370D01*
X123340Y19369D01*
X123339Y19368D01*
X123252Y19252D01*
X123170Y19143D01*
X123170Y19142D01*
X123169Y19140D01*
X123119Y19009D01*
X123069Y18878D01*
X123069Y18876D01*
X123068Y18875D01*
X123057Y18730D01*
X123046Y18594D01*
X123046Y18593D01*
X123046Y18591D01*
X123049Y18576D01*
X123101Y18316D01*
X123115Y18288D01*
X123121Y18264D01*
X123699Y16870D01*
X123699Y13130D01*
X122268Y9676D01*
X119533Y6941D01*
X119515Y6917D01*
X119493Y6898D01*
X119430Y6804D01*
X119362Y6714D01*
X119351Y6686D01*
X119335Y6662D01*
X119301Y6554D01*
X119261Y6448D01*
X119258Y6419D01*
X119249Y6391D01*
X119246Y6277D01*
X119237Y6165D01*
X119243Y6136D01*
X119242Y6107D01*
X119271Y5997D01*
X119293Y5886D01*
X119306Y5860D01*
X119314Y5832D01*
X119372Y5734D01*
X119424Y5634D01*
X119444Y5612D01*
X119459Y5587D01*
X119542Y5510D01*
X119620Y5428D01*
X119645Y5413D01*
X119666Y5393D01*
X119767Y5341D01*
X119865Y5284D01*
X119893Y5277D01*
X119919Y5263D01*
X119997Y5250D01*
X120140Y5214D01*
X120203Y5216D01*
X120251Y5208D01*
X132767Y5208D01*
X132874Y5223D01*
X132983Y5231D01*
X133015Y5243D01*
X133048Y5248D01*
X133147Y5292D01*
X133250Y5330D01*
X133277Y5350D01*
X133308Y5364D01*
X133391Y5434D01*
X133478Y5499D01*
X133499Y5526D01*
X133525Y5547D01*
X133585Y5638D01*
X133651Y5724D01*
X133664Y5756D01*
X133682Y5784D01*
X133715Y5888D01*
X133755Y5989D01*
X133758Y6023D01*
X133768Y6055D01*
X133771Y6164D01*
X133781Y6272D01*
X133775Y6306D01*
X133775Y6339D01*
X133748Y6444D01*
X133728Y6551D01*
X133712Y6582D01*
X133704Y6614D01*
X133648Y6708D01*
X133599Y6805D01*
X133578Y6827D01*
X133558Y6859D01*
X133398Y7009D01*
X133364Y7044D01*
X133081Y7250D01*
X131950Y8381D01*
X131010Y9675D01*
X130284Y11100D01*
X129789Y12621D01*
X129734Y12969D01*
X138684Y12969D01*
X138742Y12977D01*
X138800Y12975D01*
X138882Y12997D01*
X138965Y13009D01*
X139019Y13033D01*
X139075Y13047D01*
X139148Y13090D01*
X139225Y13125D01*
X139269Y13163D01*
X139320Y13193D01*
X139377Y13254D01*
X139442Y13309D01*
X139474Y13357D01*
X139514Y13400D01*
X139553Y13475D01*
X139599Y13545D01*
X139617Y13601D01*
X139644Y13653D01*
X139655Y13721D01*
X139685Y13816D01*
X139688Y13916D01*
X139699Y13984D01*
X139699Y15001D01*
X139701Y15001D01*
X139701Y13984D01*
X139709Y13926D01*
X139708Y13868D01*
X139729Y13786D01*
X139741Y13703D01*
X139765Y13649D01*
X139779Y13593D01*
X139822Y13520D01*
X139857Y13443D01*
X139895Y13398D01*
X139925Y13348D01*
X139986Y13290D01*
X140041Y13226D01*
X140089Y13194D01*
X140132Y13154D01*
X140207Y13115D01*
X140277Y13069D01*
X140333Y13051D01*
X140385Y13024D01*
X140453Y13013D01*
X140548Y12983D01*
X140648Y12980D01*
X140716Y12969D01*
X149666Y12969D01*
X149611Y12621D01*
X149116Y11100D01*
X148390Y9675D01*
X147450Y8381D01*
X146319Y7250D01*
X146036Y7044D01*
X145958Y6969D01*
X145875Y6898D01*
X145856Y6870D01*
X145832Y6847D01*
X145778Y6753D01*
X145718Y6662D01*
X145707Y6630D01*
X145691Y6600D01*
X145665Y6495D01*
X145632Y6391D01*
X145631Y6357D01*
X145623Y6324D01*
X145627Y6216D01*
X145625Y6107D01*
X145633Y6074D01*
X145635Y6040D01*
X145669Y5937D01*
X145696Y5832D01*
X145714Y5803D01*
X145724Y5770D01*
X145786Y5681D01*
X145842Y5587D01*
X145866Y5564D01*
X145886Y5536D01*
X145970Y5467D01*
X146049Y5393D01*
X146079Y5377D01*
X146105Y5356D01*
X146205Y5313D01*
X146302Y5263D01*
X146332Y5258D01*
X146366Y5243D01*
X146584Y5216D01*
X146633Y5208D01*
X159149Y5208D01*
X159179Y5212D01*
X159208Y5209D01*
X159319Y5232D01*
X159431Y5248D01*
X159458Y5260D01*
X159486Y5265D01*
X159587Y5318D01*
X159690Y5364D01*
X159713Y5383D01*
X159739Y5396D01*
X159821Y5474D01*
X159907Y5547D01*
X159924Y5572D01*
X159945Y5592D01*
X160002Y5690D01*
X160065Y5784D01*
X160074Y5812D01*
X160089Y5837D01*
X160116Y5947D01*
X160151Y6055D01*
X160151Y6085D01*
X160159Y6113D01*
X160155Y6226D01*
X160158Y6339D01*
X160151Y6368D01*
X160150Y6397D01*
X160115Y6505D01*
X160086Y6614D01*
X160071Y6640D01*
X160062Y6668D01*
X160017Y6731D01*
X159941Y6859D01*
X159895Y6902D01*
X159867Y6941D01*
X157132Y9676D01*
X155701Y13130D01*
X155701Y16870D01*
X157132Y20324D01*
X159776Y22968D01*
X163230Y24399D01*
X166970Y24399D01*
X170424Y22968D01*
X173068Y20324D01*
X174499Y16870D01*
X174499Y13130D01*
X173068Y9676D01*
X170333Y6941D01*
X170315Y6917D01*
X170293Y6898D01*
X170230Y6804D01*
X170162Y6714D01*
X170151Y6686D01*
X170135Y6662D01*
X170101Y6554D01*
X170061Y6448D01*
X170058Y6419D01*
X170049Y6391D01*
X170046Y6277D01*
X170037Y6165D01*
X170043Y6136D01*
X170042Y6107D01*
X170071Y5997D01*
X170093Y5886D01*
X170106Y5860D01*
X170114Y5832D01*
X170172Y5734D01*
X170224Y5634D01*
X170244Y5612D01*
X170259Y5587D01*
X170342Y5510D01*
X170420Y5428D01*
X170445Y5413D01*
X170466Y5393D01*
X170567Y5341D01*
X170665Y5284D01*
X170693Y5277D01*
X170719Y5263D01*
X170797Y5250D01*
X170940Y5214D01*
X171003Y5216D01*
X171051Y5208D01*
X184549Y5208D01*
X184579Y5212D01*
X184608Y5209D01*
X184719Y5232D01*
X184831Y5248D01*
X184858Y5260D01*
X184886Y5265D01*
X184987Y5318D01*
X185090Y5364D01*
X185113Y5383D01*
X185139Y5396D01*
X185221Y5474D01*
X185307Y5547D01*
X185324Y5572D01*
X185345Y5592D01*
X185402Y5690D01*
X185465Y5784D01*
X185474Y5812D01*
X185489Y5837D01*
X185516Y5947D01*
X185551Y6055D01*
X185551Y6085D01*
X185559Y6113D01*
X185555Y6226D01*
X185558Y6339D01*
X185551Y6368D01*
X185550Y6397D01*
X185515Y6505D01*
X185486Y6614D01*
X185471Y6640D01*
X185462Y6668D01*
X185417Y6731D01*
X185341Y6859D01*
X185295Y6902D01*
X185267Y6941D01*
X182532Y9676D01*
X181101Y13130D01*
X181101Y16870D01*
X181889Y18772D01*
X181890Y18774D01*
X181891Y18775D01*
X181922Y18899D01*
X181960Y19047D01*
X181960Y19049D01*
X181961Y19050D01*
X181956Y19191D01*
X181952Y19331D01*
X181952Y19333D01*
X181952Y19335D01*
X181908Y19469D01*
X181865Y19602D01*
X181865Y19604D01*
X181864Y19605D01*
X181855Y19618D01*
X181707Y19838D01*
X181684Y19858D01*
X181669Y19878D01*
X169588Y31960D01*
X169518Y32012D01*
X169454Y32072D01*
X169405Y32098D01*
X169361Y32131D01*
X169279Y32162D01*
X169201Y32202D01*
X169153Y32210D01*
X169095Y32232D01*
X168947Y32244D01*
X168870Y32257D01*
X157360Y32257D01*
X157273Y32245D01*
X157186Y32242D01*
X157133Y32225D01*
X157078Y32217D01*
X156999Y32182D01*
X156915Y32155D01*
X156876Y32127D01*
X156819Y32101D01*
X156706Y32005D01*
X156642Y31960D01*
X154907Y30225D01*
X150909Y30225D01*
X148081Y33053D01*
X148081Y37051D01*
X150909Y39879D01*
X154907Y39879D01*
X156642Y38144D01*
X156712Y38092D01*
X156776Y38032D01*
X156825Y38006D01*
X156869Y37973D01*
X156951Y37942D01*
X157029Y37902D01*
X157076Y37894D01*
X157135Y37872D01*
X157282Y37860D01*
X157360Y37847D01*
X171606Y37847D01*
X173540Y35912D01*
X185622Y23831D01*
X185623Y23830D01*
X185624Y23829D01*
X185737Y23744D01*
X185849Y23660D01*
X185850Y23659D01*
X185852Y23658D01*
X185983Y23609D01*
X186114Y23559D01*
X186116Y23559D01*
X186118Y23558D01*
X186257Y23547D01*
X186398Y23535D01*
X186399Y23535D01*
X186401Y23535D01*
X186416Y23539D01*
X186676Y23591D01*
X186704Y23605D01*
X186728Y23611D01*
X188630Y24399D01*
X192370Y24399D01*
X195824Y22968D01*
X198468Y20324D01*
X199899Y16870D01*
X199899Y13130D01*
X198468Y9676D01*
X195733Y6941D01*
X195715Y6917D01*
X195693Y6898D01*
X195630Y6804D01*
X195562Y6714D01*
X195551Y6686D01*
X195535Y6662D01*
X195501Y6554D01*
X195461Y6448D01*
X195458Y6419D01*
X195449Y6391D01*
X195446Y6277D01*
X195437Y6165D01*
X195443Y6136D01*
X195442Y6107D01*
X195471Y5997D01*
X195493Y5886D01*
X195506Y5860D01*
X195514Y5832D01*
X195572Y5734D01*
X195624Y5634D01*
X195644Y5612D01*
X195659Y5587D01*
X195742Y5510D01*
X195820Y5428D01*
X195845Y5413D01*
X195866Y5393D01*
X195967Y5341D01*
X196065Y5284D01*
X196093Y5277D01*
X196119Y5263D01*
X196197Y5250D01*
X196340Y5214D01*
X196403Y5216D01*
X196451Y5208D01*
X247777Y5208D01*
X247835Y5216D01*
X247893Y5214D01*
X247975Y5236D01*
X248059Y5248D01*
X248112Y5271D01*
X248168Y5286D01*
X248241Y5329D01*
X248318Y5364D01*
X248363Y5402D01*
X248413Y5431D01*
X248471Y5493D01*
X248535Y5547D01*
X248567Y5596D01*
X248607Y5639D01*
X248646Y5714D01*
X248693Y5784D01*
X248710Y5840D01*
X248737Y5892D01*
X248748Y5960D01*
X248778Y6055D01*
X248781Y6155D01*
X248792Y6223D01*
X248792Y41171D01*
X248780Y41256D01*
X248778Y41342D01*
X248760Y41396D01*
X248752Y41453D01*
X248717Y41531D01*
X248691Y41613D01*
X248659Y41660D01*
X248636Y41712D01*
X248581Y41777D01*
X248533Y41849D01*
X248489Y41885D01*
X248453Y41929D01*
X248381Y41977D01*
X248315Y42032D01*
X248263Y42055D01*
X248216Y42087D01*
X248134Y42112D01*
X248055Y42147D01*
X247999Y42155D01*
X247945Y42172D01*
X247859Y42174D01*
X247774Y42186D01*
X247718Y42178D01*
X247661Y42180D01*
X247578Y42158D01*
X247492Y42146D01*
X247441Y42122D01*
X247386Y42108D01*
X247312Y42064D01*
X247233Y42028D01*
X247190Y41992D01*
X247141Y41963D01*
X247082Y41900D01*
X247017Y41844D01*
X246991Y41802D01*
X246947Y41755D01*
X246881Y41626D01*
X246839Y41560D01*
X245624Y38625D01*
X239975Y32976D01*
X232594Y29919D01*
X224606Y29919D01*
X217225Y32976D01*
X211576Y38625D01*
X208519Y46006D01*
X208519Y53994D01*
X211576Y61375D01*
X217225Y67024D01*
X224606Y70081D01*
X232594Y70081D01*
X239975Y67024D01*
X245624Y61375D01*
X246839Y58440D01*
X246883Y58367D01*
X246918Y58288D01*
X246955Y58245D01*
X246984Y58196D01*
X247046Y58137D01*
X247102Y58071D01*
X247149Y58040D01*
X247190Y58000D01*
X247267Y57961D01*
X247338Y57913D01*
X247392Y57896D01*
X247443Y57870D01*
X247527Y57854D01*
X247609Y57828D01*
X247666Y57826D01*
X247722Y57815D01*
X247807Y57823D01*
X247893Y57820D01*
X247948Y57835D01*
X248005Y57840D01*
X248085Y57871D01*
X248168Y57892D01*
X248217Y57921D01*
X248270Y57942D01*
X248339Y57994D01*
X248413Y58037D01*
X248452Y58079D01*
X248497Y58113D01*
X248549Y58182D01*
X248607Y58245D01*
X248633Y58296D01*
X248667Y58341D01*
X248698Y58421D01*
X248737Y58498D01*
X248745Y58547D01*
X248768Y58607D01*
X248779Y58752D01*
X248792Y58829D01*
X248792Y102444D01*
X248784Y102502D01*
X248786Y102560D01*
X248764Y102642D01*
X248752Y102726D01*
X248729Y102779D01*
X248714Y102835D01*
X248671Y102908D01*
X248636Y102985D01*
X248598Y103030D01*
X248569Y103080D01*
X248507Y103138D01*
X248453Y103202D01*
X248404Y103234D01*
X248361Y103274D01*
X248286Y103313D01*
X248216Y103360D01*
X248160Y103377D01*
X248108Y103404D01*
X248040Y103415D01*
X247945Y103445D01*
X247845Y103448D01*
X247777Y103459D01*
X240781Y103459D01*
X240781Y110984D01*
X240773Y111042D01*
X240774Y111100D01*
X240753Y111182D01*
X240741Y111265D01*
X240717Y111319D01*
X240703Y111375D01*
X240660Y111448D01*
X240625Y111525D01*
X240587Y111569D01*
X240557Y111620D01*
X240496Y111677D01*
X240441Y111742D01*
X240393Y111774D01*
X240350Y111814D01*
X240275Y111853D01*
X240205Y111899D01*
X240149Y111917D01*
X240097Y111944D01*
X240029Y111955D01*
X239934Y111985D01*
X239834Y111988D01*
X239766Y111999D01*
X238749Y111999D01*
X238749Y112001D01*
X239766Y112001D01*
X239824Y112009D01*
X239882Y112008D01*
X239964Y112029D01*
X240047Y112041D01*
X240101Y112065D01*
X240157Y112079D01*
X240230Y112122D01*
X240307Y112157D01*
X240351Y112195D01*
X240402Y112225D01*
X240459Y112286D01*
X240524Y112341D01*
X240556Y112389D01*
X240596Y112432D01*
X240635Y112507D01*
X240681Y112577D01*
X240699Y112633D01*
X240726Y112685D01*
X240737Y112753D01*
X240767Y112848D01*
X240770Y112948D01*
X240781Y113016D01*
X240781Y120541D01*
X247777Y120541D01*
X247835Y120549D01*
X247893Y120547D01*
X247975Y120569D01*
X248059Y120581D01*
X248112Y120604D01*
X248168Y120619D01*
X248241Y120662D01*
X248318Y120697D01*
X248363Y120735D01*
X248413Y120764D01*
X248471Y120826D01*
X248535Y120880D01*
X248567Y120929D01*
X248607Y120972D01*
X248646Y121047D01*
X248693Y121117D01*
X248710Y121173D01*
X248737Y121225D01*
X248748Y121293D01*
X248778Y121388D01*
X248781Y121488D01*
X248792Y121556D01*
X248792Y158444D01*
X248784Y158502D01*
X248786Y158560D01*
X248764Y158642D01*
X248752Y158726D01*
X248729Y158779D01*
X248714Y158835D01*
X248671Y158908D01*
X248636Y158985D01*
X248598Y159030D01*
X248569Y159080D01*
X248507Y159138D01*
X248453Y159202D01*
X248404Y159234D01*
X248361Y159274D01*
X248286Y159313D01*
X248216Y159360D01*
X248160Y159377D01*
X248108Y159404D01*
X248040Y159415D01*
X247945Y159445D01*
X247845Y159448D01*
X247777Y159459D01*
X240781Y159459D01*
X240781Y166984D01*
X240773Y167042D01*
X240774Y167100D01*
X240753Y167182D01*
X240741Y167265D01*
X240717Y167319D01*
X240703Y167375D01*
X240660Y167448D01*
X240625Y167525D01*
X240587Y167569D01*
X240557Y167620D01*
X240496Y167677D01*
X240441Y167742D01*
X240393Y167774D01*
X240350Y167814D01*
X240275Y167853D01*
X240205Y167899D01*
X240149Y167917D01*
X240097Y167944D01*
X240029Y167955D01*
X239934Y167985D01*
X239834Y167988D01*
X239766Y167999D01*
X238749Y167999D01*
X238749Y169016D01*
X238741Y169074D01*
X238742Y169132D01*
X238721Y169214D01*
X238709Y169297D01*
X238685Y169351D01*
X238671Y169407D01*
X238628Y169480D01*
X238593Y169557D01*
X238555Y169601D01*
X238525Y169652D01*
X238464Y169709D01*
X238409Y169774D01*
X238361Y169806D01*
X238318Y169846D01*
X238243Y169885D01*
X238173Y169931D01*
X238117Y169949D01*
X238065Y169976D01*
X237997Y169987D01*
X237902Y170017D01*
X237802Y170020D01*
X237734Y170031D01*
X226209Y170031D01*
X226209Y173777D01*
X226202Y173829D01*
X226203Y173856D01*
X226202Y173859D01*
X226203Y173893D01*
X226181Y173975D01*
X226169Y174058D01*
X226146Y174112D01*
X226131Y174168D01*
X226088Y174241D01*
X226053Y174318D01*
X226015Y174363D01*
X225986Y174413D01*
X225924Y174471D01*
X225870Y174535D01*
X225821Y174567D01*
X225778Y174607D01*
X225703Y174646D01*
X225633Y174692D01*
X225577Y174710D01*
X225525Y174737D01*
X225457Y174748D01*
X225362Y174778D01*
X225262Y174781D01*
X225194Y174792D01*
X28806Y174792D01*
X28748Y174784D01*
X28690Y174786D01*
X28608Y174764D01*
X28524Y174752D01*
X28471Y174729D01*
X28415Y174714D01*
X28342Y174671D01*
X28265Y174636D01*
X28220Y174598D01*
X28170Y174569D01*
X28112Y174507D01*
X28048Y174453D01*
X28016Y174404D01*
X27976Y174361D01*
X27937Y174286D01*
X27890Y174216D01*
X27873Y174160D01*
X27846Y174108D01*
X27835Y174040D01*
X27805Y173945D01*
X27802Y173845D01*
X27791Y173777D01*
X27791Y170031D01*
X16266Y170031D01*
X16208Y170023D01*
X16150Y170024D01*
X16068Y170003D01*
X15985Y169991D01*
X15931Y169967D01*
X15875Y169953D01*
X15802Y169910D01*
X15725Y169875D01*
X15681Y169837D01*
X15630Y169807D01*
X15573Y169746D01*
X15508Y169691D01*
X15476Y169643D01*
X15436Y169600D01*
X15397Y169525D01*
X15351Y169455D01*
X15333Y169399D01*
X15306Y169347D01*
X15295Y169279D01*
X15265Y169184D01*
X15262Y169084D01*
X15251Y169016D01*
X15251Y167999D01*
X14234Y167999D01*
X14176Y167991D01*
X14118Y167992D01*
X14036Y167971D01*
X13953Y167959D01*
X13899Y167935D01*
X13843Y167921D01*
X13770Y167878D01*
X13693Y167843D01*
X13648Y167805D01*
X13598Y167775D01*
X13540Y167714D01*
X13476Y167659D01*
X13444Y167611D01*
X13404Y167568D01*
X13365Y167493D01*
X13319Y167423D01*
X13301Y167367D01*
X13274Y167315D01*
X13263Y167247D01*
X13233Y167152D01*
X13230Y167052D01*
X13219Y166984D01*
X13219Y159459D01*
X6223Y159459D01*
X6165Y159451D01*
X6107Y159453D01*
X6025Y159431D01*
X5941Y159419D01*
X5888Y159396D01*
X5832Y159381D01*
X5759Y159338D01*
X5682Y159303D01*
X5637Y159265D01*
X5587Y159236D01*
X5529Y159174D01*
X5465Y159120D01*
X5433Y159071D01*
X5393Y159028D01*
X5354Y158953D01*
X5307Y158883D01*
X5290Y158827D01*
X5263Y158775D01*
X5252Y158707D01*
X5222Y158612D01*
X5219Y158512D01*
X5208Y158444D01*
X5208Y121556D01*
X5216Y121498D01*
X5214Y121440D01*
X5236Y121358D01*
X5248Y121274D01*
X5271Y121221D01*
X5286Y121165D01*
X5329Y121092D01*
X5364Y121015D01*
X5402Y120970D01*
X5431Y120920D01*
X5493Y120862D01*
X5547Y120798D01*
X5596Y120766D01*
X5639Y120726D01*
X5714Y120687D01*
X5784Y120640D01*
X5840Y120623D01*
X5892Y120596D01*
X5960Y120585D01*
X6055Y120555D01*
X6155Y120552D01*
X6223Y120541D01*
X13219Y120541D01*
X13219Y113016D01*
X13227Y112958D01*
X13225Y112900D01*
X13247Y112818D01*
X13259Y112735D01*
X13283Y112681D01*
X13297Y112625D01*
X13340Y112552D01*
X13375Y112475D01*
X13413Y112431D01*
X13443Y112380D01*
X13504Y112323D01*
X13559Y112258D01*
X13607Y112226D01*
X13650Y112186D01*
X13725Y112147D01*
X13795Y112101D01*
X13851Y112083D01*
X13903Y112056D01*
X13971Y112045D01*
X14066Y112015D01*
X14166Y112012D01*
X14234Y112001D01*
X15251Y112001D01*
X15251Y111999D01*
X14234Y111999D01*
X14176Y111991D01*
X14118Y111992D01*
X14036Y111971D01*
X13953Y111959D01*
X13899Y111935D01*
X13843Y111921D01*
X13770Y111878D01*
X13693Y111843D01*
X13648Y111805D01*
X13598Y111775D01*
X13540Y111714D01*
X13476Y111659D01*
X13444Y111611D01*
X13404Y111568D01*
X13365Y111493D01*
X13319Y111423D01*
X13301Y111367D01*
X13274Y111315D01*
X13263Y111247D01*
X13233Y111152D01*
X13230Y111052D01*
X13219Y110984D01*
X13219Y103459D01*
X6223Y103459D01*
X6165Y103451D01*
X6107Y103453D01*
X6025Y103431D01*
X5941Y103419D01*
X5888Y103396D01*
X5832Y103381D01*
X5759Y103338D01*
X5682Y103303D01*
X5637Y103265D01*
X5587Y103236D01*
X5529Y103174D01*
X5465Y103120D01*
X5433Y103071D01*
X5393Y103028D01*
X5354Y102953D01*
X5307Y102883D01*
X5290Y102827D01*
X5263Y102775D01*
X5252Y102707D01*
X5222Y102612D01*
X5219Y102512D01*
X5208Y102444D01*
X5208Y58829D01*
X5220Y58744D01*
X5222Y58658D01*
X5240Y58604D01*
X5248Y58548D01*
X5283Y58469D01*
X5309Y58387D01*
X5341Y58340D01*
X5364Y58288D01*
X5419Y58223D01*
X5467Y58151D01*
X5511Y58115D01*
X5547Y58071D01*
X5619Y58024D01*
X5685Y57968D01*
X5737Y57945D01*
X5784Y57914D01*
X5866Y57888D01*
X5945Y57853D01*
X6001Y57845D01*
X6055Y57828D01*
X6141Y57826D01*
X6226Y57814D01*
X6282Y57822D01*
X6339Y57820D01*
X6422Y57842D01*
X6507Y57854D01*
X6559Y57878D01*
X6614Y57892D01*
X6688Y57936D01*
X6767Y57972D01*
X6810Y58008D01*
X6859Y58038D01*
X6918Y58100D01*
X6983Y58156D01*
X7009Y58198D01*
X7053Y58245D01*
X7119Y58374D01*
X7161Y58441D01*
X8376Y61375D01*
X14025Y67024D01*
X21406Y70081D01*
X29394Y70081D01*
X36775Y67024D01*
X42424Y61375D01*
X45481Y53994D01*
X45481Y46006D01*
X42424Y38625D01*
X36775Y32976D01*
X29394Y29919D01*
X21406Y29919D01*
X14025Y32976D01*
X8376Y38625D01*
X7161Y41559D01*
X7117Y41633D01*
X7082Y41712D01*
X7045Y41755D01*
X7016Y41804D01*
X6954Y41863D01*
X6898Y41929D01*
X6851Y41960D01*
X6810Y41999D01*
X6733Y42039D01*
X6662Y42086D01*
X6608Y42104D01*
X6557Y42130D01*
X6473Y42146D01*
X6391Y42172D01*
X6334Y42174D01*
X6278Y42185D01*
X6193Y42177D01*
X6107Y42180D01*
X6052Y42165D01*
X5995Y42160D01*
X5915Y42129D01*
X5832Y42108D01*
X5783Y42079D01*
X5730Y42058D01*
X5661Y42006D01*
X5587Y41962D01*
X5548Y41921D01*
X5503Y41887D01*
X5451Y41818D01*
X5393Y41755D01*
X5367Y41704D01*
X5333Y41659D01*
X5302Y41579D01*
X5263Y41502D01*
X5255Y41453D01*
X5232Y41393D01*
X5221Y41248D01*
X5208Y41171D01*
X5208Y6223D01*
X5216Y6165D01*
X5214Y6107D01*
X5236Y6025D01*
X5248Y5941D01*
X5271Y5888D01*
X5286Y5832D01*
X5329Y5759D01*
X5364Y5682D01*
X5402Y5637D01*
X5431Y5587D01*
X5493Y5529D01*
X5547Y5465D01*
X5596Y5433D01*
X5639Y5393D01*
X5714Y5354D01*
X5784Y5307D01*
X5840Y5290D01*
X5892Y5263D01*
X5960Y5252D01*
X6055Y5222D01*
X6155Y5219D01*
X6223Y5208D01*
X53086Y5208D01*
X53144Y5216D01*
G37*
G36*
X108379Y5212D02*
X108379Y5212D01*
X108408Y5209D01*
X108519Y5232D01*
X108631Y5248D01*
X108658Y5260D01*
X108686Y5265D01*
X108787Y5318D01*
X108890Y5364D01*
X108913Y5383D01*
X108939Y5396D01*
X109021Y5474D01*
X109107Y5547D01*
X109124Y5572D01*
X109145Y5592D01*
X109202Y5690D01*
X109265Y5784D01*
X109274Y5812D01*
X109289Y5837D01*
X109316Y5947D01*
X109351Y6055D01*
X109351Y6085D01*
X109359Y6113D01*
X109355Y6226D01*
X109358Y6339D01*
X109351Y6368D01*
X109350Y6397D01*
X109315Y6505D01*
X109286Y6614D01*
X109271Y6640D01*
X109262Y6668D01*
X109217Y6731D01*
X109141Y6859D01*
X109095Y6902D01*
X109067Y6941D01*
X106332Y9676D01*
X104901Y13130D01*
X104901Y16870D01*
X106332Y20324D01*
X108976Y22968D01*
X112430Y24399D01*
X116170Y24399D01*
X117564Y23821D01*
X117566Y23821D01*
X117567Y23820D01*
X117701Y23786D01*
X117839Y23750D01*
X117841Y23750D01*
X117842Y23750D01*
X117983Y23754D01*
X118123Y23758D01*
X118125Y23759D01*
X118127Y23759D01*
X118259Y23802D01*
X118394Y23845D01*
X118396Y23846D01*
X118397Y23846D01*
X118409Y23855D01*
X118630Y24003D01*
X118650Y24027D01*
X118670Y24041D01*
X150056Y55427D01*
X152288Y57659D01*
X167375Y57659D01*
X167462Y57671D01*
X167549Y57674D01*
X167602Y57691D01*
X167657Y57699D01*
X167737Y57734D01*
X167820Y57761D01*
X167859Y57789D01*
X167916Y57815D01*
X168030Y57911D01*
X168093Y57956D01*
X176994Y66857D01*
X177046Y66926D01*
X177106Y66990D01*
X177132Y67040D01*
X177165Y67084D01*
X177196Y67166D01*
X177236Y67244D01*
X177244Y67291D01*
X177266Y67350D01*
X177278Y67497D01*
X177291Y67575D01*
X177291Y73202D01*
X177279Y73288D01*
X177276Y73376D01*
X177259Y73428D01*
X177251Y73483D01*
X177216Y73563D01*
X177189Y73646D01*
X177161Y73685D01*
X177135Y73743D01*
X177059Y73832D01*
X177040Y73865D01*
X177018Y73885D01*
X176994Y73920D01*
X175354Y75559D01*
X175354Y75560D01*
X175346Y75618D01*
X175348Y75676D01*
X175326Y75758D01*
X175314Y75842D01*
X175291Y75895D01*
X175276Y75951D01*
X175233Y76024D01*
X175198Y76101D01*
X175160Y76146D01*
X175131Y76196D01*
X175069Y76254D01*
X175015Y76318D01*
X174966Y76350D01*
X174923Y76390D01*
X174848Y76429D01*
X174778Y76476D01*
X174722Y76493D01*
X174670Y76520D01*
X174602Y76531D01*
X174507Y76561D01*
X174407Y76564D01*
X174339Y76575D01*
X168643Y76575D01*
X168557Y76563D01*
X168469Y76560D01*
X168417Y76543D01*
X168362Y76535D01*
X168282Y76500D01*
X168199Y76473D01*
X168160Y76445D01*
X168102Y76419D01*
X167989Y76323D01*
X167925Y76278D01*
X167747Y76099D01*
X154273Y76099D01*
X153231Y77141D01*
X153231Y77453D01*
X153218Y77550D01*
X153217Y77603D01*
X153213Y77618D01*
X153210Y77662D01*
X153197Y77698D01*
X153191Y77735D01*
X153150Y77828D01*
X153136Y77875D01*
X153128Y77887D01*
X153113Y77929D01*
X153091Y77960D01*
X153075Y77994D01*
X153008Y78073D01*
X152982Y78114D01*
X152972Y78123D01*
X152946Y78159D01*
X152916Y78183D01*
X152892Y78211D01*
X152806Y78268D01*
X152768Y78302D01*
X152755Y78307D01*
X152721Y78334D01*
X152686Y78348D01*
X152655Y78369D01*
X152559Y78399D01*
X152510Y78422D01*
X152495Y78424D01*
X152457Y78440D01*
X152420Y78443D01*
X152384Y78455D01*
X152288Y78457D01*
X152229Y78466D01*
X152211Y78464D01*
X152174Y78468D01*
X152137Y78461D01*
X152100Y78462D01*
X152013Y78439D01*
X151947Y78431D01*
X151927Y78422D01*
X151895Y78416D01*
X151865Y78401D01*
X151825Y78390D01*
X151753Y78348D01*
X151686Y78319D01*
X151640Y78281D01*
X151598Y78259D01*
X151595Y78257D01*
X151588Y78250D01*
X151580Y78245D01*
X151529Y78190D01*
X151466Y78139D01*
X151435Y78093D01*
X151396Y78054D01*
X151390Y78042D01*
X151386Y78038D01*
X151355Y77977D01*
X151305Y77905D01*
X151291Y77859D01*
X151261Y77804D01*
X151257Y77787D01*
X151256Y77784D01*
X151254Y77771D01*
X151230Y77659D01*
X151207Y77584D01*
X151204Y77561D01*
X151177Y77538D01*
X151156Y77504D01*
X151120Y77467D01*
X151081Y77396D01*
X151053Y77384D01*
X150978Y77340D01*
X150898Y77304D01*
X150856Y77268D01*
X150809Y77240D01*
X150749Y77176D01*
X150682Y77119D01*
X150656Y77078D01*
X150613Y77033D01*
X150546Y76901D01*
X150504Y76835D01*
X150495Y76813D01*
X150463Y76798D01*
X150434Y76770D01*
X150390Y76745D01*
X150334Y76685D01*
X150304Y76681D01*
X150220Y76658D01*
X150134Y76644D01*
X150084Y76620D01*
X150030Y76605D01*
X149956Y76559D01*
X149877Y76522D01*
X149842Y76489D01*
X149788Y76456D01*
X149688Y76346D01*
X149631Y76293D01*
X149617Y76274D01*
X149583Y76268D01*
X149547Y76249D01*
X149498Y76235D01*
X149391Y76170D01*
X149304Y76169D01*
X149293Y76166D01*
X149281Y76165D01*
X149157Y76125D01*
X149071Y76099D01*
X148930Y76099D01*
X148899Y76095D01*
X148869Y76097D01*
X148792Y76080D01*
X148648Y76059D01*
X148590Y76033D01*
X148541Y76022D01*
X148398Y75963D01*
X148342Y75986D01*
X148248Y76010D01*
X148156Y76043D01*
X148116Y76044D01*
X148066Y76057D01*
X147894Y76052D01*
X147821Y76055D01*
X147331Y75990D01*
X147262Y76029D01*
X147242Y76034D01*
X147223Y76044D01*
X147149Y76056D01*
X146986Y76095D01*
X146933Y76092D01*
X146892Y76099D01*
X146693Y76099D01*
X146635Y76091D01*
X146577Y76093D01*
X146495Y76071D01*
X146411Y76059D01*
X146358Y76036D01*
X146302Y76021D01*
X146229Y75978D01*
X146152Y75943D01*
X146107Y75905D01*
X146057Y75876D01*
X145999Y75814D01*
X145935Y75760D01*
X145903Y75711D01*
X145863Y75668D01*
X145824Y75593D01*
X145777Y75523D01*
X145760Y75467D01*
X145733Y75415D01*
X145722Y75347D01*
X145692Y75252D01*
X145689Y75152D01*
X145678Y75084D01*
X145678Y68005D01*
X143818Y66145D01*
X97678Y20005D01*
X97677Y20004D01*
X97676Y20003D01*
X97589Y19887D01*
X97507Y19778D01*
X97507Y19777D01*
X97506Y19775D01*
X97455Y19642D01*
X97406Y19513D01*
X97406Y19511D01*
X97405Y19510D01*
X97394Y19365D01*
X97382Y19229D01*
X97383Y19228D01*
X97383Y19226D01*
X97386Y19211D01*
X97438Y18951D01*
X97452Y18923D01*
X97458Y18899D01*
X98299Y16870D01*
X98299Y13130D01*
X96868Y9676D01*
X94133Y6941D01*
X94115Y6917D01*
X94093Y6898D01*
X94030Y6804D01*
X93962Y6714D01*
X93951Y6686D01*
X93935Y6662D01*
X93901Y6554D01*
X93861Y6448D01*
X93858Y6419D01*
X93849Y6391D01*
X93846Y6277D01*
X93837Y6165D01*
X93843Y6136D01*
X93842Y6107D01*
X93871Y5997D01*
X93893Y5886D01*
X93906Y5860D01*
X93914Y5832D01*
X93972Y5734D01*
X94024Y5634D01*
X94044Y5612D01*
X94059Y5587D01*
X94142Y5510D01*
X94220Y5428D01*
X94245Y5413D01*
X94266Y5393D01*
X94367Y5341D01*
X94465Y5284D01*
X94493Y5277D01*
X94519Y5263D01*
X94597Y5250D01*
X94740Y5214D01*
X94803Y5216D01*
X94851Y5208D01*
X108349Y5208D01*
X108379Y5212D01*
G37*
G36*
X105308Y93584D02*
X105308Y93584D01*
X105421Y93581D01*
X105450Y93588D01*
X105479Y93589D01*
X105587Y93624D01*
X105696Y93653D01*
X105722Y93668D01*
X105750Y93677D01*
X105813Y93722D01*
X105941Y93798D01*
X105984Y93844D01*
X106023Y93872D01*
X111244Y99093D01*
X111296Y99163D01*
X111356Y99226D01*
X111382Y99276D01*
X111415Y99320D01*
X111446Y99402D01*
X111486Y99480D01*
X111494Y99527D01*
X111516Y99586D01*
X111528Y99733D01*
X111541Y99811D01*
X111541Y111235D01*
X112583Y112277D01*
X118984Y112277D01*
X119013Y112281D01*
X119043Y112278D01*
X119154Y112301D01*
X119266Y112317D01*
X119292Y112329D01*
X119321Y112334D01*
X119422Y112387D01*
X119525Y112433D01*
X119548Y112452D01*
X119574Y112465D01*
X119656Y112543D01*
X119742Y112616D01*
X119758Y112641D01*
X119780Y112661D01*
X119837Y112759D01*
X119900Y112853D01*
X119909Y112881D01*
X119923Y112906D01*
X119951Y113016D01*
X119986Y113124D01*
X119986Y113154D01*
X119993Y113182D01*
X119990Y113295D01*
X119993Y113408D01*
X119985Y113437D01*
X119984Y113466D01*
X119950Y113574D01*
X119921Y113683D01*
X119906Y113709D01*
X119897Y113737D01*
X119851Y113801D01*
X119776Y113928D01*
X119730Y113971D01*
X119702Y114010D01*
X119379Y114333D01*
X119379Y116965D01*
X119367Y117052D01*
X119364Y117139D01*
X119347Y117192D01*
X119339Y117247D01*
X119304Y117327D01*
X119277Y117410D01*
X119249Y117449D01*
X119223Y117506D01*
X119127Y117620D01*
X119082Y117683D01*
X114730Y122035D01*
X114661Y122087D01*
X114597Y122147D01*
X114547Y122173D01*
X114503Y122206D01*
X114421Y122237D01*
X114344Y122277D01*
X114296Y122285D01*
X114237Y122307D01*
X114090Y122319D01*
X114012Y122332D01*
X61544Y122332D01*
X61486Y122324D01*
X61428Y122326D01*
X61346Y122304D01*
X61262Y122292D01*
X61209Y122269D01*
X61153Y122254D01*
X61080Y122211D01*
X61003Y122176D01*
X60958Y122138D01*
X60908Y122109D01*
X60850Y122047D01*
X60786Y121993D01*
X60754Y121944D01*
X60714Y121901D01*
X60675Y121826D01*
X60628Y121756D01*
X60611Y121700D01*
X60584Y121648D01*
X60573Y121580D01*
X60543Y121485D01*
X60540Y121385D01*
X60529Y121317D01*
X60529Y121263D01*
X59487Y120221D01*
X45905Y120221D01*
X45875Y120217D01*
X45846Y120220D01*
X45735Y120197D01*
X45623Y120181D01*
X45596Y120169D01*
X45568Y120164D01*
X45467Y120112D01*
X45364Y120065D01*
X45341Y120046D01*
X45315Y120033D01*
X45233Y119955D01*
X45147Y119882D01*
X45130Y119857D01*
X45109Y119837D01*
X45052Y119739D01*
X44989Y119645D01*
X44980Y119617D01*
X44965Y119592D01*
X44937Y119482D01*
X44903Y119374D01*
X44902Y119344D01*
X44895Y119316D01*
X44899Y119203D01*
X44896Y119090D01*
X44903Y119061D01*
X44904Y119032D01*
X44939Y118924D01*
X44968Y118815D01*
X44983Y118789D01*
X44992Y118761D01*
X45037Y118698D01*
X45113Y118570D01*
X45159Y118527D01*
X45187Y118488D01*
X52887Y110788D01*
X52956Y110736D01*
X53020Y110676D01*
X53070Y110650D01*
X53114Y110617D01*
X53196Y110586D01*
X53273Y110546D01*
X53321Y110538D01*
X53380Y110516D01*
X53527Y110504D01*
X53605Y110491D01*
X55339Y110491D01*
X56566Y109264D01*
X56636Y109212D01*
X56700Y109152D01*
X56749Y109126D01*
X56793Y109093D01*
X56875Y109062D01*
X56953Y109022D01*
X57000Y109014D01*
X57059Y108992D01*
X57206Y108980D01*
X57284Y108967D01*
X71542Y108967D01*
X73774Y106735D01*
X79920Y100589D01*
X79990Y100537D01*
X80053Y100477D01*
X80103Y100451D01*
X80147Y100418D01*
X80229Y100387D01*
X80306Y100347D01*
X80354Y100339D01*
X80413Y100317D01*
X80560Y100305D01*
X80638Y100292D01*
X86301Y100292D01*
X87994Y98599D01*
X87994Y98386D01*
X88002Y98328D01*
X88000Y98270D01*
X88022Y98188D01*
X88034Y98104D01*
X88057Y98051D01*
X88072Y97995D01*
X88115Y97922D01*
X88150Y97845D01*
X88188Y97800D01*
X88217Y97750D01*
X88279Y97692D01*
X88333Y97628D01*
X88382Y97596D01*
X88425Y97556D01*
X88500Y97517D01*
X88570Y97470D01*
X88626Y97453D01*
X88678Y97426D01*
X88746Y97415D01*
X88841Y97385D01*
X88941Y97382D01*
X89009Y97371D01*
X90827Y97371D01*
X90885Y97379D01*
X90943Y97377D01*
X91025Y97399D01*
X91109Y97411D01*
X91162Y97434D01*
X91218Y97449D01*
X91291Y97492D01*
X91368Y97527D01*
X91413Y97565D01*
X91463Y97594D01*
X91521Y97656D01*
X91585Y97710D01*
X91617Y97759D01*
X91657Y97802D01*
X91696Y97877D01*
X91743Y97947D01*
X91760Y98003D01*
X91787Y98055D01*
X91798Y98123D01*
X91828Y98218D01*
X91831Y98318D01*
X91842Y98386D01*
X91842Y103781D01*
X93535Y105474D01*
X102597Y105474D01*
X104290Y103781D01*
X104290Y94590D01*
X104294Y94560D01*
X104291Y94531D01*
X104314Y94420D01*
X104330Y94308D01*
X104342Y94281D01*
X104347Y94253D01*
X104399Y94152D01*
X104446Y94049D01*
X104465Y94026D01*
X104478Y94000D01*
X104556Y93918D01*
X104629Y93832D01*
X104654Y93815D01*
X104674Y93794D01*
X104772Y93737D01*
X104866Y93674D01*
X104894Y93665D01*
X104919Y93650D01*
X105029Y93622D01*
X105137Y93588D01*
X105167Y93587D01*
X105195Y93580D01*
X105308Y93584D01*
G37*
G36*
X82979Y5212D02*
X82979Y5212D01*
X83008Y5209D01*
X83119Y5232D01*
X83231Y5248D01*
X83258Y5260D01*
X83286Y5265D01*
X83387Y5318D01*
X83490Y5364D01*
X83513Y5383D01*
X83539Y5396D01*
X83621Y5474D01*
X83707Y5547D01*
X83724Y5572D01*
X83745Y5592D01*
X83802Y5690D01*
X83865Y5784D01*
X83874Y5812D01*
X83889Y5837D01*
X83916Y5947D01*
X83951Y6055D01*
X83951Y6085D01*
X83959Y6113D01*
X83955Y6226D01*
X83958Y6339D01*
X83951Y6368D01*
X83950Y6397D01*
X83915Y6505D01*
X83886Y6614D01*
X83871Y6640D01*
X83862Y6668D01*
X83817Y6731D01*
X83741Y6859D01*
X83695Y6902D01*
X83667Y6941D01*
X80932Y9676D01*
X79501Y13130D01*
X79501Y16870D01*
X80932Y20324D01*
X83576Y22968D01*
X87030Y24399D01*
X90770Y24399D01*
X92799Y23558D01*
X92801Y23558D01*
X92802Y23557D01*
X92829Y23550D01*
X92853Y23538D01*
X92924Y23526D01*
X92936Y23523D01*
X93074Y23487D01*
X93076Y23487D01*
X93077Y23487D01*
X93144Y23489D01*
X93184Y23482D01*
X93189Y23482D01*
X93262Y23493D01*
X93358Y23495D01*
X93360Y23496D01*
X93362Y23496D01*
X93421Y23515D01*
X93470Y23522D01*
X93541Y23554D01*
X93629Y23582D01*
X93631Y23583D01*
X93632Y23583D01*
X93644Y23592D01*
X93680Y23616D01*
X93730Y23638D01*
X93793Y23692D01*
X93865Y23740D01*
X93885Y23764D01*
X93905Y23778D01*
X124273Y54146D01*
X124291Y54170D01*
X124313Y54189D01*
X124376Y54283D01*
X124444Y54373D01*
X124455Y54401D01*
X124471Y54425D01*
X124505Y54533D01*
X124546Y54639D01*
X124548Y54668D01*
X124557Y54696D01*
X124560Y54810D01*
X124569Y54922D01*
X124563Y54951D01*
X124564Y54980D01*
X124535Y55090D01*
X124513Y55201D01*
X124500Y55227D01*
X124492Y55255D01*
X124434Y55353D01*
X124382Y55453D01*
X124362Y55475D01*
X124347Y55500D01*
X124264Y55577D01*
X124186Y55659D01*
X124161Y55674D01*
X124140Y55694D01*
X124039Y55746D01*
X123941Y55803D01*
X123913Y55810D01*
X123887Y55824D01*
X123809Y55837D01*
X123666Y55873D01*
X123603Y55871D01*
X123556Y55879D01*
X122207Y55879D01*
X120345Y57741D01*
X120275Y57793D01*
X120211Y57853D01*
X120162Y57879D01*
X120118Y57912D01*
X120036Y57943D01*
X119958Y57983D01*
X119911Y57991D01*
X119852Y58013D01*
X119705Y58025D01*
X119627Y58038D01*
X110732Y58038D01*
X110645Y58026D01*
X110558Y58023D01*
X110505Y58006D01*
X110450Y57998D01*
X110370Y57963D01*
X110287Y57936D01*
X110248Y57908D01*
X110191Y57882D01*
X110077Y57786D01*
X110014Y57741D01*
X73196Y20923D01*
X73144Y20854D01*
X73084Y20790D01*
X73058Y20740D01*
X73025Y20696D01*
X72994Y20614D01*
X72954Y20537D01*
X72946Y20489D01*
X72924Y20431D01*
X72912Y20283D01*
X72899Y20205D01*
X72899Y6223D01*
X72907Y6165D01*
X72905Y6107D01*
X72927Y6025D01*
X72939Y5941D01*
X72962Y5888D01*
X72977Y5832D01*
X73020Y5759D01*
X73055Y5682D01*
X73093Y5637D01*
X73122Y5587D01*
X73184Y5529D01*
X73238Y5465D01*
X73287Y5433D01*
X73330Y5393D01*
X73405Y5354D01*
X73475Y5307D01*
X73531Y5290D01*
X73583Y5263D01*
X73651Y5252D01*
X73746Y5222D01*
X73846Y5219D01*
X73914Y5208D01*
X82949Y5208D01*
X82979Y5212D01*
G37*
%LPC*%
G36*
X138623Y129984D02*
X138623Y129984D01*
X136930Y131677D01*
X136930Y140739D01*
X138623Y142432D01*
X139471Y142432D01*
X139529Y142440D01*
X139587Y142438D01*
X139669Y142460D01*
X139753Y142472D01*
X139806Y142495D01*
X139862Y142510D01*
X139935Y142553D01*
X140012Y142588D01*
X140057Y142626D01*
X140107Y142655D01*
X140165Y142717D01*
X140229Y142771D01*
X140261Y142820D01*
X140301Y142863D01*
X140340Y142938D01*
X140387Y143008D01*
X140404Y143064D01*
X140431Y143116D01*
X140442Y143184D01*
X140472Y143279D01*
X140475Y143379D01*
X140486Y143447D01*
X140486Y153003D01*
X140474Y153090D01*
X140471Y153177D01*
X140454Y153230D01*
X140446Y153285D01*
X140411Y153364D01*
X140384Y153448D01*
X140356Y153487D01*
X140330Y153544D01*
X140234Y153657D01*
X140189Y153721D01*
X138429Y155481D01*
X138429Y159479D01*
X141257Y162307D01*
X145255Y162307D01*
X148083Y159479D01*
X148083Y155481D01*
X146119Y153517D01*
X146067Y153447D01*
X146007Y153383D01*
X145981Y153334D01*
X145948Y153290D01*
X145917Y153208D01*
X145877Y153130D01*
X145869Y153083D01*
X145847Y153024D01*
X145835Y152877D01*
X145822Y152799D01*
X145822Y143447D01*
X145830Y143389D01*
X145828Y143331D01*
X145850Y143249D01*
X145862Y143165D01*
X145885Y143112D01*
X145900Y143056D01*
X145943Y142983D01*
X145978Y142906D01*
X146016Y142861D01*
X146045Y142811D01*
X146107Y142753D01*
X146161Y142689D01*
X146210Y142657D01*
X146253Y142617D01*
X146328Y142578D01*
X146398Y142531D01*
X146454Y142514D01*
X146506Y142487D01*
X146574Y142476D01*
X146669Y142446D01*
X146769Y142443D01*
X146837Y142432D01*
X147685Y142432D01*
X149378Y140739D01*
X149378Y131677D01*
X147685Y129984D01*
X138623Y129984D01*
G37*
%LPD*%
%LPC*%
G36*
X17281Y114031D02*
X17281Y114031D01*
X17281Y120541D01*
X25584Y120541D01*
X26231Y120368D01*
X26810Y120033D01*
X27283Y119560D01*
X27618Y118981D01*
X27791Y118334D01*
X27791Y114031D01*
X17281Y114031D01*
G37*
%LPD*%
%LPC*%
G36*
X226209Y114031D02*
X226209Y114031D01*
X226209Y118334D01*
X226382Y118981D01*
X226717Y119560D01*
X227190Y120033D01*
X227769Y120368D01*
X228416Y120541D01*
X236719Y120541D01*
X236719Y114031D01*
X226209Y114031D01*
G37*
%LPD*%
%LPC*%
G36*
X17281Y159459D02*
X17281Y159459D01*
X17281Y165969D01*
X27791Y165969D01*
X27791Y161666D01*
X27618Y161019D01*
X27283Y160440D01*
X26810Y159967D01*
X26231Y159632D01*
X25584Y159459D01*
X17281Y159459D01*
G37*
%LPD*%
%LPC*%
G36*
X17281Y103459D02*
X17281Y103459D01*
X17281Y109969D01*
X27791Y109969D01*
X27791Y105666D01*
X27618Y105019D01*
X27283Y104440D01*
X26810Y103967D01*
X26231Y103632D01*
X25584Y103459D01*
X17281Y103459D01*
G37*
%LPD*%
%LPC*%
G36*
X228416Y159459D02*
X228416Y159459D01*
X227769Y159632D01*
X227190Y159967D01*
X226717Y160440D01*
X226382Y161019D01*
X226209Y161666D01*
X226209Y165969D01*
X236719Y165969D01*
X236719Y159459D01*
X228416Y159459D01*
G37*
%LPD*%
%LPC*%
G36*
X228416Y103459D02*
X228416Y103459D01*
X227769Y103632D01*
X227190Y103967D01*
X226717Y104440D01*
X226382Y105019D01*
X226209Y105666D01*
X226209Y109969D01*
X236719Y109969D01*
X236719Y103459D01*
X228416Y103459D01*
G37*
%LPD*%
G36*
X148038Y90884D02*
X148038Y90884D01*
X148075Y90883D01*
X148463Y90934D01*
X148506Y90949D01*
X148589Y90968D01*
X148951Y91118D01*
X148988Y91143D01*
X149064Y91183D01*
X149375Y91421D01*
X149404Y91455D01*
X149467Y91513D01*
X149705Y91824D01*
X149725Y91865D01*
X149770Y91937D01*
X149920Y92299D01*
X149929Y92343D01*
X149954Y92425D01*
X150005Y92813D01*
X150002Y92854D01*
X150009Y92892D01*
X150004Y92913D01*
X150005Y92943D01*
X149954Y93331D01*
X149939Y93374D01*
X149920Y93457D01*
X149770Y93819D01*
X149745Y93856D01*
X149705Y93932D01*
X149467Y94243D01*
X149433Y94272D01*
X149375Y94335D01*
X149064Y94573D01*
X149023Y94593D01*
X148951Y94638D01*
X148589Y94788D01*
X148545Y94797D01*
X148463Y94822D01*
X148075Y94873D01*
X148052Y94871D01*
X148044Y94873D01*
X148037Y94873D01*
X148010Y94877D01*
X138510Y94877D01*
X138502Y94876D01*
X138493Y94877D01*
X138405Y94856D01*
X138315Y94838D01*
X138308Y94833D01*
X138300Y94831D01*
X138227Y94777D01*
X138151Y94725D01*
X138147Y94718D01*
X138140Y94713D01*
X138093Y94635D01*
X138044Y94558D01*
X138043Y94549D01*
X138038Y94542D01*
X138011Y94378D01*
X138011Y91378D01*
X138012Y91370D01*
X138011Y91361D01*
X138032Y91273D01*
X138050Y91183D01*
X138055Y91176D01*
X138057Y91168D01*
X138111Y91095D01*
X138163Y91019D01*
X138170Y91015D01*
X138175Y91008D01*
X138253Y90961D01*
X138330Y90912D01*
X138339Y90911D01*
X138346Y90906D01*
X138510Y90879D01*
X148010Y90879D01*
X148038Y90884D01*
G37*
G36*
X148038Y84384D02*
X148038Y84384D01*
X148075Y84383D01*
X148463Y84434D01*
X148506Y84449D01*
X148589Y84468D01*
X148951Y84618D01*
X148988Y84643D01*
X149064Y84683D01*
X149375Y84921D01*
X149404Y84955D01*
X149467Y85013D01*
X149705Y85324D01*
X149725Y85365D01*
X149770Y85437D01*
X149920Y85799D01*
X149929Y85843D01*
X149954Y85925D01*
X150005Y86313D01*
X150002Y86354D01*
X150009Y86392D01*
X150004Y86413D01*
X150005Y86443D01*
X149954Y86831D01*
X149939Y86874D01*
X149920Y86957D01*
X149770Y87319D01*
X149745Y87356D01*
X149705Y87432D01*
X149467Y87743D01*
X149433Y87772D01*
X149375Y87835D01*
X149064Y88073D01*
X149023Y88093D01*
X148951Y88138D01*
X148589Y88288D01*
X148545Y88297D01*
X148463Y88322D01*
X148075Y88373D01*
X148052Y88371D01*
X148044Y88373D01*
X148037Y88373D01*
X148010Y88377D01*
X138510Y88377D01*
X138502Y88376D01*
X138493Y88377D01*
X138405Y88356D01*
X138315Y88338D01*
X138308Y88333D01*
X138300Y88331D01*
X138227Y88277D01*
X138151Y88225D01*
X138147Y88218D01*
X138140Y88213D01*
X138093Y88135D01*
X138044Y88058D01*
X138043Y88049D01*
X138038Y88042D01*
X138011Y87878D01*
X138011Y84878D01*
X138012Y84870D01*
X138011Y84861D01*
X138032Y84773D01*
X138050Y84683D01*
X138055Y84676D01*
X138057Y84668D01*
X138111Y84595D01*
X138163Y84519D01*
X138170Y84515D01*
X138175Y84508D01*
X138253Y84461D01*
X138330Y84412D01*
X138339Y84411D01*
X138346Y84406D01*
X138510Y84379D01*
X148010Y84379D01*
X148038Y84384D01*
G37*
G36*
X148038Y77884D02*
X148038Y77884D01*
X148075Y77883D01*
X148463Y77934D01*
X148506Y77949D01*
X148589Y77968D01*
X148951Y78118D01*
X148988Y78143D01*
X149064Y78183D01*
X149375Y78421D01*
X149404Y78455D01*
X149467Y78513D01*
X149705Y78824D01*
X149725Y78865D01*
X149770Y78937D01*
X149920Y79299D01*
X149929Y79343D01*
X149954Y79425D01*
X150005Y79813D01*
X150002Y79854D01*
X150009Y79892D01*
X150004Y79913D01*
X150005Y79943D01*
X149954Y80331D01*
X149939Y80374D01*
X149920Y80457D01*
X149770Y80819D01*
X149745Y80856D01*
X149705Y80932D01*
X149467Y81243D01*
X149433Y81272D01*
X149375Y81335D01*
X149064Y81573D01*
X149023Y81593D01*
X148951Y81638D01*
X148589Y81788D01*
X148545Y81797D01*
X148463Y81822D01*
X148075Y81873D01*
X148052Y81871D01*
X148044Y81873D01*
X148037Y81873D01*
X148010Y81877D01*
X138510Y81877D01*
X138502Y81876D01*
X138493Y81877D01*
X138405Y81856D01*
X138315Y81838D01*
X138308Y81833D01*
X138300Y81831D01*
X138227Y81777D01*
X138151Y81725D01*
X138147Y81718D01*
X138140Y81713D01*
X138093Y81635D01*
X138044Y81558D01*
X138043Y81549D01*
X138038Y81542D01*
X138011Y81378D01*
X138011Y78378D01*
X138012Y78370D01*
X138011Y78361D01*
X138032Y78273D01*
X138050Y78183D01*
X138055Y78176D01*
X138057Y78168D01*
X138111Y78095D01*
X138163Y78019D01*
X138170Y78015D01*
X138175Y78008D01*
X138253Y77961D01*
X138330Y77912D01*
X138339Y77911D01*
X138346Y77906D01*
X138510Y77879D01*
X148010Y77879D01*
X148038Y77884D01*
G37*
G36*
X166518Y84380D02*
X166518Y84380D01*
X166527Y84379D01*
X166615Y84400D01*
X166705Y84418D01*
X166712Y84423D01*
X166720Y84425D01*
X166793Y84479D01*
X166869Y84531D01*
X166873Y84538D01*
X166880Y84543D01*
X166927Y84621D01*
X166976Y84698D01*
X166977Y84707D01*
X166982Y84714D01*
X167009Y84878D01*
X167009Y87878D01*
X167008Y87884D01*
X167009Y87890D01*
X167009Y87892D01*
X167009Y87895D01*
X166988Y87983D01*
X166970Y88073D01*
X166965Y88080D01*
X166963Y88088D01*
X166909Y88161D01*
X166857Y88237D01*
X166850Y88241D01*
X166845Y88248D01*
X166767Y88295D01*
X166690Y88344D01*
X166681Y88345D01*
X166674Y88350D01*
X166510Y88377D01*
X157010Y88377D01*
X156988Y88373D01*
X156976Y88373D01*
X156972Y88372D01*
X156945Y88373D01*
X156557Y88322D01*
X156514Y88307D01*
X156431Y88288D01*
X156069Y88138D01*
X156032Y88113D01*
X155956Y88073D01*
X155645Y87835D01*
X155616Y87801D01*
X155553Y87743D01*
X155315Y87432D01*
X155295Y87391D01*
X155250Y87319D01*
X155100Y86957D01*
X155091Y86913D01*
X155066Y86831D01*
X155015Y86443D01*
X155018Y86399D01*
X155011Y86359D01*
X155016Y86340D01*
X155015Y86313D01*
X155066Y85925D01*
X155081Y85882D01*
X155100Y85799D01*
X155250Y85437D01*
X155275Y85400D01*
X155315Y85324D01*
X155553Y85013D01*
X155587Y84984D01*
X155645Y84921D01*
X155956Y84683D01*
X155997Y84663D01*
X156069Y84618D01*
X156431Y84468D01*
X156475Y84459D01*
X156557Y84434D01*
X156945Y84383D01*
X156973Y84385D01*
X157010Y84379D01*
X166510Y84379D01*
X166518Y84380D01*
G37*
%LPC*%
G36*
X141731Y17031D02*
X141731Y17031D01*
X141731Y24966D01*
X142079Y24911D01*
X143600Y24416D01*
X145025Y23690D01*
X146319Y22750D01*
X147450Y21619D01*
X148390Y20325D01*
X149116Y18900D01*
X149611Y17379D01*
X149666Y17031D01*
X141731Y17031D01*
G37*
%LPD*%
%LPC*%
G36*
X129734Y17031D02*
X129734Y17031D01*
X129789Y17379D01*
X130284Y18900D01*
X131010Y20325D01*
X131950Y21619D01*
X133081Y22750D01*
X134375Y23690D01*
X135800Y24416D01*
X137321Y24911D01*
X137669Y24966D01*
X137669Y17031D01*
X129734Y17031D01*
G37*
%LPD*%
%LPC*%
G36*
X53499Y156499D02*
X53499Y156499D01*
X53499Y160541D01*
X59084Y160541D01*
X59731Y160368D01*
X60310Y160033D01*
X60783Y159560D01*
X61118Y158981D01*
X61291Y158334D01*
X61291Y156499D01*
X53499Y156499D01*
G37*
%LPD*%
%LPC*%
G36*
X42709Y156499D02*
X42709Y156499D01*
X42709Y158334D01*
X42882Y158981D01*
X43217Y159560D01*
X43690Y160033D01*
X44269Y160368D01*
X44916Y160541D01*
X50501Y160541D01*
X50501Y156499D01*
X42709Y156499D01*
G37*
%LPD*%
%LPC*%
G36*
X203499Y119459D02*
X203499Y119459D01*
X203499Y123501D01*
X211291Y123501D01*
X211291Y121666D01*
X211118Y121019D01*
X210783Y120440D01*
X210310Y119967D01*
X209731Y119632D01*
X209084Y119459D01*
X203499Y119459D01*
G37*
%LPD*%
%LPC*%
G36*
X68783Y61891D02*
X68783Y61891D01*
X68783Y66846D01*
X72801Y66846D01*
X73448Y66673D01*
X74027Y66338D01*
X74500Y65865D01*
X74835Y65286D01*
X75008Y64639D01*
X75008Y61891D01*
X68783Y61891D01*
G37*
%LPD*%
%LPC*%
G36*
X58496Y61891D02*
X58496Y61891D01*
X58496Y64639D01*
X58669Y65286D01*
X59004Y65865D01*
X59477Y66338D01*
X60056Y66673D01*
X60703Y66846D01*
X64721Y66846D01*
X64721Y61891D01*
X58496Y61891D01*
G37*
%LPD*%
%LPC*%
G36*
X68783Y52874D02*
X68783Y52874D01*
X68783Y57829D01*
X75008Y57829D01*
X75008Y55081D01*
X74835Y54434D01*
X74500Y53855D01*
X74027Y53382D01*
X73448Y53047D01*
X72801Y52874D01*
X68783Y52874D01*
G37*
%LPD*%
%LPC*%
G36*
X60703Y52874D02*
X60703Y52874D01*
X60056Y53047D01*
X59477Y53382D01*
X59004Y53855D01*
X58669Y54434D01*
X58496Y55081D01*
X58496Y57829D01*
X64721Y57829D01*
X64721Y52874D01*
X60703Y52874D01*
G37*
%LPD*%
%LPC*%
G36*
X198849Y82121D02*
X198849Y82121D01*
X198849Y87076D01*
X200633Y87076D01*
X201561Y86827D01*
X202394Y86346D01*
X203074Y85666D01*
X203555Y84833D01*
X203804Y83905D01*
X203804Y82121D01*
X198849Y82121D01*
G37*
%LPD*%
%LPC*%
G36*
X189832Y82121D02*
X189832Y82121D01*
X189832Y83905D01*
X190081Y84833D01*
X190562Y85666D01*
X191242Y86346D01*
X192075Y86827D01*
X193003Y87076D01*
X194787Y87076D01*
X194787Y82121D01*
X189832Y82121D01*
G37*
%LPD*%
%LPC*%
G36*
X198849Y73104D02*
X198849Y73104D01*
X198849Y78059D01*
X203804Y78059D01*
X203804Y76275D01*
X203555Y75347D01*
X203074Y74514D01*
X202394Y73834D01*
X201561Y73353D01*
X200633Y73104D01*
X198849Y73104D01*
G37*
%LPD*%
%LPC*%
G36*
X193003Y73104D02*
X193003Y73104D01*
X192075Y73353D01*
X191242Y73834D01*
X190562Y74514D01*
X190081Y75347D01*
X189832Y76275D01*
X189832Y78059D01*
X194787Y78059D01*
X194787Y73104D01*
X193003Y73104D01*
G37*
%LPD*%
%LPC*%
G36*
X196817Y80089D02*
X196817Y80089D01*
X196817Y80091D01*
X196819Y80091D01*
X196819Y80089D01*
X196817Y80089D01*
G37*
%LPD*%
%LPC*%
G36*
X66751Y59859D02*
X66751Y59859D01*
X66751Y59861D01*
X66753Y59861D01*
X66753Y59859D01*
X66751Y59859D01*
G37*
%LPD*%
D10*
X193484Y83424D02*
X200152Y83424D01*
X200152Y76756D01*
X193484Y76756D01*
X193484Y83424D01*
X193484Y78868D02*
X200152Y78868D01*
X200152Y80980D02*
X193484Y80980D01*
X193484Y83092D02*
X200152Y83092D01*
X184912Y83424D02*
X178244Y83424D01*
X184912Y83424D02*
X184912Y76756D01*
X178244Y76756D01*
X178244Y83424D01*
X178244Y78868D02*
X184912Y78868D01*
X184912Y80980D02*
X178244Y80980D01*
X178244Y83092D02*
X184912Y83092D01*
D11*
X120320Y103498D03*
X120320Y74498D03*
D12*
X52000Y155000D03*
X52000Y145000D03*
X52000Y135000D03*
X52000Y125000D03*
D13*
X15250Y112000D03*
X15250Y168000D03*
D12*
X202000Y125000D03*
X202000Y135000D03*
X202000Y145000D03*
X202000Y155000D03*
D13*
X238750Y168000D03*
X238750Y112000D03*
D10*
X163488Y117434D02*
X163488Y124102D01*
X163488Y117434D02*
X156820Y117434D01*
X156820Y124102D01*
X163488Y124102D01*
X163488Y119546D02*
X156820Y119546D01*
X156820Y121658D02*
X163488Y121658D01*
X163488Y123770D02*
X156820Y123770D01*
X163488Y132674D02*
X163488Y139342D01*
X163488Y132674D02*
X156820Y132674D01*
X156820Y139342D01*
X163488Y139342D01*
X163488Y134786D02*
X156820Y134786D01*
X156820Y136898D02*
X163488Y136898D01*
X163488Y139010D02*
X156820Y139010D01*
X146488Y124302D02*
X146488Y117634D01*
X139820Y117634D01*
X139820Y124302D01*
X146488Y124302D01*
X146488Y119746D02*
X139820Y119746D01*
X139820Y121858D02*
X146488Y121858D01*
X146488Y123970D02*
X139820Y123970D01*
X146488Y132874D02*
X146488Y139542D01*
X146488Y132874D02*
X139820Y132874D01*
X139820Y139542D01*
X146488Y139542D01*
X146488Y134986D02*
X139820Y134986D01*
X139820Y137098D02*
X146488Y137098D01*
X146488Y139210D02*
X139820Y139210D01*
D14*
X161010Y79878D03*
D15*
X162010Y86378D03*
X162010Y92878D03*
X143010Y92878D03*
X143010Y86378D03*
X143010Y79878D03*
D10*
X94732Y95916D02*
X94732Y102584D01*
X101400Y102584D01*
X101400Y95916D01*
X94732Y95916D01*
X94732Y98028D02*
X101400Y98028D01*
X101400Y100140D02*
X94732Y100140D01*
X94732Y102252D02*
X101400Y102252D01*
X94732Y87344D02*
X94732Y80676D01*
X94732Y87344D02*
X101400Y87344D01*
X101400Y80676D01*
X94732Y80676D01*
X94732Y82788D02*
X101400Y82788D01*
X101400Y84900D02*
X94732Y84900D01*
X94732Y87012D02*
X101400Y87012D01*
D16*
X87072Y69360D03*
X66752Y59860D03*
X66752Y78860D03*
D10*
X69864Y90734D02*
X63196Y90734D01*
X63196Y97402D01*
X69864Y97402D01*
X69864Y90734D01*
X69864Y92846D02*
X63196Y92846D01*
X63196Y94958D02*
X69864Y94958D01*
X69864Y97070D02*
X63196Y97070D01*
X78436Y90734D02*
X85104Y90734D01*
X78436Y90734D02*
X78436Y97402D01*
X85104Y97402D01*
X85104Y90734D01*
X85104Y92846D02*
X78436Y92846D01*
X78436Y94958D02*
X85104Y94958D01*
X85104Y97070D02*
X78436Y97070D01*
D17*
X63500Y15000D03*
D18*
X88900Y15000D03*
X114300Y15000D03*
X139700Y15000D03*
X165100Y15000D03*
X190500Y15000D03*
D19*
X101600Y9398D03*
X76708Y9398D03*
X126492Y8890D03*
X83566Y106172D03*
X42164Y104394D03*
D20*
X169290Y111632D02*
X170688Y110234D01*
X169290Y111632D02*
X160154Y120768D01*
X194386Y155000D01*
X202000Y155000D01*
X115538Y125000D02*
X52000Y125000D01*
X115538Y125000D02*
X124206Y116332D01*
D19*
X124206Y116332D03*
X169290Y111632D03*
D20*
X109206Y60706D02*
X63500Y15000D01*
X109206Y60706D02*
X124206Y60706D01*
D19*
X124206Y60706D03*
D20*
X166282Y86378D02*
X170688Y90784D01*
X166282Y86378D02*
X162010Y86378D01*
X170688Y90784D02*
X170688Y110234D01*
X131826Y97739D02*
X131787Y97700D01*
X131787Y86829D01*
X194022Y145000D02*
X202000Y145000D01*
X194022Y145000D02*
X171196Y122174D01*
D19*
X171196Y122174D03*
X131826Y120650D03*
D20*
X142836Y120650D01*
X143154Y120968D01*
X131826Y120650D02*
X131826Y97739D01*
X117476Y135000D02*
X52000Y135000D01*
X117476Y135000D02*
X131826Y120650D01*
X143010Y69110D02*
X88900Y15000D01*
X143010Y69110D02*
X143010Y79878D01*
X138738Y79878D01*
X131787Y86829D01*
X160154Y136008D02*
X160154Y157106D01*
X160274Y157226D01*
D19*
X160274Y157226D03*
D20*
X143154Y157378D02*
X143154Y136208D01*
X143154Y157378D02*
X143256Y157480D01*
D19*
X143256Y157480D03*
D21*
X196468Y135000D02*
X202000Y135000D01*
X52000Y145000D02*
X46194Y145000D01*
X39116Y137922D01*
X39116Y119888D01*
X53340Y105664D01*
X92884Y94068D02*
X98066Y99250D01*
X92884Y94068D02*
X81770Y94068D01*
X70174Y105664D01*
X53340Y105664D01*
X181022Y80090D02*
X181578Y80090D01*
X153656Y54356D02*
X114300Y15000D01*
X169164Y54356D02*
X180594Y65786D01*
X180594Y79106D01*
X181578Y80090D01*
X169164Y54356D02*
X153656Y54356D01*
X161010Y79878D02*
X181366Y79878D01*
X181578Y80090D01*
X181578Y120110D02*
X188341Y126873D01*
X196468Y135000D01*
D19*
X53340Y105664D03*
X181578Y120110D03*
D21*
X181578Y80090D01*
D19*
X144018Y104902D03*
D20*
X135343Y96227D02*
X135343Y89773D01*
X135343Y96227D02*
X144018Y104902D01*
X143010Y86378D02*
X138738Y86378D01*
X135343Y89773D01*
D21*
X120320Y103498D02*
X100832Y84010D01*
X98066Y84010D01*
X87072Y69360D02*
X115182Y69360D01*
X120320Y74498D01*
X66752Y78860D02*
X66752Y86106D01*
X66752Y93846D01*
X66530Y94068D01*
D22*
X170448Y35052D02*
X190500Y15000D01*
X170448Y35052D02*
X152908Y35052D01*
D19*
X152908Y35052D03*
X66752Y86106D03*
M02*
