G04 EAGLE Gerber RS-274X export*
G75*
%MOMM*%
%FSLAX34Y34*%
%LPD*%
%AMOC8*
5,1,8,0,0,1.08239X$1,22.5*%
G01*
%ADD10C,3.101600*%
%ADD11C,0.326897*%
%ADD12R,1.501600X1.501600*%
%ADD13R,1.451600X0.701600*%
%ADD14R,2.101600X1.301600*%
%ADD15R,1.301600X0.501600*%
%ADD16R,1.101600X0.501600*%
%ADD17R,1.244600X0.990600*%
%ADD18R,1.625600X1.625600*%
%ADD19C,1.625600*%


D10*
X25400Y50000D03*
X228600Y50000D03*
D11*
X200137Y83409D02*
X193499Y83409D01*
X200137Y83409D02*
X200137Y76771D01*
X193499Y76771D01*
X193499Y83409D01*
X193499Y79877D02*
X200137Y79877D01*
X200137Y82983D02*
X193499Y82983D01*
X184897Y83409D02*
X178259Y83409D01*
X184897Y83409D02*
X184897Y76771D01*
X178259Y76771D01*
X178259Y83409D01*
X178259Y79877D02*
X184897Y79877D01*
X184897Y82983D02*
X178259Y82983D01*
D12*
X120320Y103498D03*
X120320Y74498D03*
D13*
X52000Y155000D03*
X52000Y145000D03*
X52000Y135000D03*
X52000Y125000D03*
D14*
X15250Y112000D03*
X15250Y168000D03*
D13*
X202000Y125000D03*
X202000Y135000D03*
X202000Y145000D03*
X202000Y155000D03*
D14*
X238750Y168000D03*
X238750Y112000D03*
D11*
X163473Y117449D02*
X163473Y124087D01*
X163473Y117449D02*
X156835Y117449D01*
X156835Y124087D01*
X163473Y124087D01*
X163473Y120555D02*
X156835Y120555D01*
X156835Y123661D02*
X163473Y123661D01*
X163473Y132689D02*
X163473Y139327D01*
X163473Y132689D02*
X156835Y132689D01*
X156835Y139327D01*
X163473Y139327D01*
X163473Y135795D02*
X156835Y135795D01*
X156835Y138901D02*
X163473Y138901D01*
X146473Y124287D02*
X146473Y117649D01*
X139835Y117649D01*
X139835Y124287D01*
X146473Y124287D01*
X146473Y120755D02*
X139835Y120755D01*
X139835Y123861D02*
X146473Y123861D01*
X146473Y132889D02*
X146473Y139527D01*
X146473Y132889D02*
X139835Y132889D01*
X139835Y139527D01*
X146473Y139527D01*
X146473Y135995D02*
X139835Y135995D01*
X139835Y139101D02*
X146473Y139101D01*
D15*
X161010Y79878D03*
D16*
X162010Y86378D03*
X162010Y92878D03*
X143010Y92878D03*
X143010Y86378D03*
X143010Y79878D03*
D11*
X94747Y95931D02*
X94747Y102569D01*
X101385Y102569D01*
X101385Y95931D01*
X94747Y95931D01*
X94747Y99037D02*
X101385Y99037D01*
X101385Y102143D02*
X94747Y102143D01*
X94747Y87329D02*
X94747Y80691D01*
X94747Y87329D02*
X101385Y87329D01*
X101385Y80691D01*
X94747Y80691D01*
X94747Y83797D02*
X101385Y83797D01*
X101385Y86903D02*
X94747Y86903D01*
D17*
X87072Y69360D03*
X66752Y59860D03*
X66752Y78860D03*
D11*
X69849Y90749D02*
X63211Y90749D01*
X63211Y97387D01*
X69849Y97387D01*
X69849Y90749D01*
X69849Y93855D02*
X63211Y93855D01*
X63211Y96961D02*
X69849Y96961D01*
X78451Y90749D02*
X85089Y90749D01*
X78451Y90749D02*
X78451Y97387D01*
X85089Y97387D01*
X85089Y90749D01*
X85089Y93855D02*
X78451Y93855D01*
X78451Y96961D02*
X85089Y96961D01*
D18*
X63500Y15000D03*
D19*
X88900Y15000D03*
X114300Y15000D03*
X139700Y15000D03*
X165100Y15000D03*
X190500Y15000D03*
M02*
