G04 EAGLE Gerber RS-274X export*
G75*
%MOMM*%
%FSLAX34Y34*%
%LPD*%
%AMOC8*
5,1,8,0,0,1.08239X$1,22.5*%
G01*
%ADD10C,0.101600*%
%ADD11C,0.127000*%
%ADD12R,1.200000X0.300000*%
%ADD13C,0.400000*%
%ADD14C,0.254000*%
%ADD15C,0.300000*%

G36*
X120359Y85700D02*
X120359Y85700D01*
X120375Y85699D01*
X120480Y85724D01*
X120585Y85745D01*
X120599Y85752D01*
X120614Y85756D01*
X120705Y85813D01*
X120799Y85866D01*
X120812Y85880D01*
X120823Y85886D01*
X120842Y85909D01*
X120917Y85986D01*
X125727Y92066D01*
X125740Y92090D01*
X125760Y92110D01*
X125800Y92197D01*
X125846Y92281D01*
X125851Y92308D01*
X125863Y92333D01*
X125874Y92428D01*
X125891Y92523D01*
X125887Y92550D01*
X125890Y92577D01*
X125870Y92671D01*
X125856Y92766D01*
X125844Y92791D01*
X125838Y92818D01*
X125789Y92900D01*
X125746Y92986D01*
X125726Y93005D01*
X125712Y93029D01*
X125639Y93091D01*
X125571Y93159D01*
X125546Y93171D01*
X125525Y93189D01*
X125436Y93225D01*
X125350Y93267D01*
X125322Y93270D01*
X125297Y93281D01*
X125130Y93299D01*
X115510Y93299D01*
X115483Y93295D01*
X115455Y93297D01*
X115362Y93275D01*
X115267Y93260D01*
X115243Y93247D01*
X115216Y93240D01*
X115134Y93189D01*
X115050Y93144D01*
X115031Y93124D01*
X115007Y93110D01*
X114947Y93036D01*
X114881Y92966D01*
X114869Y92941D01*
X114851Y92920D01*
X114817Y92830D01*
X114777Y92743D01*
X114774Y92716D01*
X114764Y92690D01*
X114760Y92594D01*
X114750Y92499D01*
X114756Y92472D01*
X114755Y92444D01*
X114782Y92352D01*
X114802Y92258D01*
X114816Y92234D01*
X114824Y92208D01*
X114913Y92066D01*
X119723Y85986D01*
X119803Y85913D01*
X119879Y85837D01*
X119893Y85831D01*
X119905Y85820D01*
X120004Y85776D01*
X120100Y85729D01*
X120116Y85727D01*
X120130Y85721D01*
X120237Y85711D01*
X120344Y85697D01*
X120359Y85700D01*
G37*
D10*
X60446Y35819D02*
X58920Y34294D01*
X58920Y31243D01*
X60446Y29718D01*
X61971Y29718D01*
X63496Y31243D01*
X63496Y34294D01*
X65021Y35819D01*
X66547Y35819D01*
X68072Y34294D01*
X68072Y31243D01*
X66547Y29718D01*
X58920Y43649D02*
X60446Y45174D01*
X58920Y43649D02*
X58920Y40598D01*
X60446Y39073D01*
X66547Y39073D01*
X68072Y40598D01*
X68072Y43649D01*
X66547Y45174D01*
X68072Y48428D02*
X58920Y48428D01*
X68072Y48428D02*
X68072Y54530D01*
X85846Y35819D02*
X84320Y34294D01*
X84320Y31243D01*
X85846Y29718D01*
X87371Y29718D01*
X88896Y31243D01*
X88896Y34294D01*
X90421Y35819D01*
X91947Y35819D01*
X93472Y34294D01*
X93472Y31243D01*
X91947Y29718D01*
X93472Y39073D02*
X84320Y39073D01*
X93472Y39073D02*
X93472Y43649D01*
X91947Y45174D01*
X85846Y45174D01*
X84320Y43649D01*
X84320Y39073D01*
X87371Y48428D02*
X93472Y48428D01*
X87371Y48428D02*
X84320Y51479D01*
X87371Y54530D01*
X93472Y54530D01*
X88896Y54530D02*
X88896Y48428D01*
X109720Y31243D02*
X111246Y29718D01*
X109720Y31243D02*
X109720Y34294D01*
X111246Y35819D01*
X112771Y35819D01*
X114296Y34294D01*
X114296Y32769D01*
X114296Y34294D02*
X115821Y35819D01*
X117347Y35819D01*
X118872Y34294D01*
X118872Y31243D01*
X117347Y29718D01*
X115821Y39073D02*
X109720Y39073D01*
X115821Y39073D02*
X118872Y42124D01*
X115821Y45174D01*
X109720Y45174D01*
X111246Y48428D02*
X109720Y49954D01*
X109720Y53004D01*
X111246Y54530D01*
X112771Y54530D01*
X114296Y53004D01*
X114296Y51479D01*
X114296Y53004D02*
X115821Y54530D01*
X117347Y54530D01*
X118872Y53004D01*
X118872Y49954D01*
X117347Y48428D01*
X135120Y34294D02*
X136646Y35819D01*
X135120Y34294D02*
X135120Y31243D01*
X136646Y29718D01*
X142747Y29718D01*
X144272Y31243D01*
X144272Y34294D01*
X142747Y35819D01*
X139696Y35819D01*
X139696Y32769D01*
X144272Y39073D02*
X135120Y39073D01*
X144272Y45174D01*
X135120Y45174D01*
X135120Y48428D02*
X144272Y48428D01*
X144272Y53004D01*
X142747Y54530D01*
X136646Y54530D01*
X135120Y53004D01*
X135120Y48428D01*
X169672Y32769D02*
X169672Y29718D01*
X169672Y31243D02*
X160520Y31243D01*
X160520Y29718D02*
X160520Y32769D01*
X160520Y35955D02*
X169672Y35955D01*
X169672Y42056D02*
X160520Y35955D01*
X160520Y42056D02*
X169672Y42056D01*
X169672Y48361D02*
X160520Y48361D01*
X160520Y51411D02*
X160520Y45310D01*
X185920Y29718D02*
X195072Y29718D01*
X195072Y35819D01*
X185920Y39073D02*
X185920Y45174D01*
X185920Y39073D02*
X195072Y39073D01*
X195072Y45174D01*
X190496Y42124D02*
X190496Y39073D01*
X185920Y48428D02*
X195072Y48428D01*
X195072Y53004D01*
X193547Y54530D01*
X187446Y54530D01*
X185920Y53004D01*
X185920Y48428D01*
X69349Y157734D02*
X63247Y157734D01*
X69349Y157734D02*
X70874Y156209D01*
X70874Y153158D01*
X69349Y151633D01*
X63247Y151633D01*
X61722Y153158D01*
X61722Y156209D01*
X63247Y157734D01*
X64773Y154683D02*
X61722Y151633D01*
X63247Y148379D02*
X67823Y148379D01*
X63247Y148379D02*
X61722Y146854D01*
X63247Y145328D01*
X61722Y143803D01*
X63247Y142278D01*
X67823Y142278D01*
X67823Y139024D02*
X67823Y137498D01*
X61722Y137498D01*
X61722Y135973D02*
X61722Y139024D01*
X70874Y137498D02*
X72399Y137498D01*
X67823Y132787D02*
X67823Y131262D01*
X61722Y131262D01*
X61722Y132787D02*
X61722Y129736D01*
X70874Y131262D02*
X72399Y131262D01*
X67823Y125025D02*
X67823Y120449D01*
X67823Y125025D02*
X66298Y126550D01*
X63247Y126550D01*
X61722Y125025D01*
X61722Y120449D01*
X184144Y122936D02*
X190245Y122936D01*
X184144Y122936D02*
X182618Y124461D01*
X182618Y127512D01*
X184144Y129037D01*
X190245Y129037D01*
X191770Y127512D01*
X191770Y124461D01*
X190245Y122936D01*
X188719Y125987D02*
X191770Y129037D01*
X190245Y132291D02*
X185669Y132291D01*
X190245Y132291D02*
X191770Y133816D01*
X190245Y135342D01*
X191770Y136867D01*
X190245Y138392D01*
X185669Y138392D01*
X185669Y141646D02*
X185669Y143172D01*
X191770Y143172D01*
X191770Y144697D02*
X191770Y141646D01*
X182618Y143172D02*
X181093Y143172D01*
X185669Y147883D02*
X185669Y149408D01*
X191770Y149408D01*
X191770Y147883D02*
X191770Y150934D01*
X182618Y149408D02*
X181093Y149408D01*
X185669Y155645D02*
X185669Y160221D01*
X185669Y155645D02*
X187194Y154120D01*
X190245Y154120D01*
X191770Y155645D01*
X191770Y160221D01*
D11*
X203168Y73740D02*
X175228Y73740D01*
X175228Y86440D01*
X203168Y86440D01*
X203168Y73740D01*
X131320Y103498D02*
X128820Y103498D01*
X131320Y103498D02*
X131320Y74498D01*
X129320Y74498D01*
X128820Y74498D01*
X111820Y103498D02*
X109320Y103498D01*
X109320Y74498D01*
X111820Y74498D01*
D12*
X120320Y85498D03*
D13*
X53586Y165000D02*
X53588Y165075D01*
X53594Y165149D01*
X53604Y165223D01*
X53617Y165296D01*
X53635Y165369D01*
X53656Y165440D01*
X53681Y165511D01*
X53710Y165580D01*
X53743Y165647D01*
X53779Y165712D01*
X53818Y165776D01*
X53860Y165837D01*
X53906Y165896D01*
X53955Y165953D01*
X54007Y166006D01*
X54061Y166057D01*
X54118Y166106D01*
X54178Y166150D01*
X54240Y166192D01*
X54304Y166231D01*
X54370Y166266D01*
X54437Y166297D01*
X54507Y166325D01*
X54577Y166349D01*
X54649Y166370D01*
X54722Y166386D01*
X54795Y166399D01*
X54870Y166408D01*
X54944Y166413D01*
X55019Y166414D01*
X55093Y166411D01*
X55168Y166404D01*
X55241Y166393D01*
X55315Y166379D01*
X55387Y166360D01*
X55458Y166338D01*
X55528Y166312D01*
X55597Y166282D01*
X55663Y166249D01*
X55728Y166212D01*
X55791Y166172D01*
X55852Y166128D01*
X55910Y166082D01*
X55966Y166032D01*
X56019Y165980D01*
X56070Y165925D01*
X56117Y165867D01*
X56161Y165807D01*
X56202Y165744D01*
X56240Y165680D01*
X56274Y165614D01*
X56305Y165545D01*
X56332Y165476D01*
X56355Y165405D01*
X56374Y165333D01*
X56390Y165260D01*
X56402Y165186D01*
X56410Y165112D01*
X56414Y165037D01*
X56414Y164963D01*
X56410Y164888D01*
X56402Y164814D01*
X56390Y164740D01*
X56374Y164667D01*
X56355Y164595D01*
X56332Y164524D01*
X56305Y164455D01*
X56274Y164386D01*
X56240Y164320D01*
X56202Y164256D01*
X56161Y164193D01*
X56117Y164133D01*
X56070Y164075D01*
X56019Y164020D01*
X55966Y163968D01*
X55910Y163918D01*
X55852Y163872D01*
X55791Y163828D01*
X55728Y163788D01*
X55663Y163751D01*
X55597Y163718D01*
X55528Y163688D01*
X55458Y163662D01*
X55387Y163640D01*
X55315Y163621D01*
X55241Y163607D01*
X55168Y163596D01*
X55093Y163589D01*
X55019Y163586D01*
X54944Y163587D01*
X54870Y163592D01*
X54795Y163601D01*
X54722Y163614D01*
X54649Y163630D01*
X54577Y163651D01*
X54507Y163675D01*
X54437Y163703D01*
X54370Y163734D01*
X54304Y163769D01*
X54240Y163808D01*
X54178Y163850D01*
X54118Y163894D01*
X54061Y163943D01*
X54007Y163994D01*
X53955Y164047D01*
X53906Y164104D01*
X53860Y164163D01*
X53818Y164224D01*
X53779Y164288D01*
X53743Y164353D01*
X53710Y164420D01*
X53681Y164489D01*
X53656Y164560D01*
X53635Y164631D01*
X53617Y164704D01*
X53604Y164777D01*
X53594Y164851D01*
X53588Y164925D01*
X53586Y165000D01*
D14*
X6000Y155000D02*
X6000Y125000D01*
X32000Y170000D02*
X48500Y170000D01*
X48500Y117500D02*
X48500Y110000D01*
X32000Y110000D01*
X48500Y162500D02*
X48500Y170000D01*
D13*
X197586Y115000D02*
X197588Y115075D01*
X197594Y115149D01*
X197604Y115223D01*
X197617Y115296D01*
X197635Y115369D01*
X197656Y115440D01*
X197681Y115511D01*
X197710Y115580D01*
X197743Y115647D01*
X197779Y115712D01*
X197818Y115776D01*
X197860Y115837D01*
X197906Y115896D01*
X197955Y115953D01*
X198007Y116006D01*
X198061Y116057D01*
X198118Y116106D01*
X198178Y116150D01*
X198240Y116192D01*
X198304Y116231D01*
X198370Y116266D01*
X198437Y116297D01*
X198507Y116325D01*
X198577Y116349D01*
X198649Y116370D01*
X198722Y116386D01*
X198795Y116399D01*
X198870Y116408D01*
X198944Y116413D01*
X199019Y116414D01*
X199093Y116411D01*
X199168Y116404D01*
X199241Y116393D01*
X199315Y116379D01*
X199387Y116360D01*
X199458Y116338D01*
X199528Y116312D01*
X199597Y116282D01*
X199663Y116249D01*
X199728Y116212D01*
X199791Y116172D01*
X199852Y116128D01*
X199910Y116082D01*
X199966Y116032D01*
X200019Y115980D01*
X200070Y115925D01*
X200117Y115867D01*
X200161Y115807D01*
X200202Y115744D01*
X200240Y115680D01*
X200274Y115614D01*
X200305Y115545D01*
X200332Y115476D01*
X200355Y115405D01*
X200374Y115333D01*
X200390Y115260D01*
X200402Y115186D01*
X200410Y115112D01*
X200414Y115037D01*
X200414Y114963D01*
X200410Y114888D01*
X200402Y114814D01*
X200390Y114740D01*
X200374Y114667D01*
X200355Y114595D01*
X200332Y114524D01*
X200305Y114455D01*
X200274Y114386D01*
X200240Y114320D01*
X200202Y114256D01*
X200161Y114193D01*
X200117Y114133D01*
X200070Y114075D01*
X200019Y114020D01*
X199966Y113968D01*
X199910Y113918D01*
X199852Y113872D01*
X199791Y113828D01*
X199728Y113788D01*
X199663Y113751D01*
X199597Y113718D01*
X199528Y113688D01*
X199458Y113662D01*
X199387Y113640D01*
X199315Y113621D01*
X199241Y113607D01*
X199168Y113596D01*
X199093Y113589D01*
X199019Y113586D01*
X198944Y113587D01*
X198870Y113592D01*
X198795Y113601D01*
X198722Y113614D01*
X198649Y113630D01*
X198577Y113651D01*
X198507Y113675D01*
X198437Y113703D01*
X198370Y113734D01*
X198304Y113769D01*
X198240Y113808D01*
X198178Y113850D01*
X198118Y113894D01*
X198061Y113943D01*
X198007Y113994D01*
X197955Y114047D01*
X197906Y114104D01*
X197860Y114163D01*
X197818Y114224D01*
X197779Y114288D01*
X197743Y114353D01*
X197710Y114420D01*
X197681Y114489D01*
X197656Y114560D01*
X197635Y114631D01*
X197617Y114704D01*
X197604Y114777D01*
X197594Y114851D01*
X197588Y114925D01*
X197586Y115000D01*
D14*
X248000Y125000D02*
X248000Y155000D01*
X222000Y110000D02*
X205500Y110000D01*
X205500Y162500D02*
X205500Y170000D01*
X222000Y170000D01*
X205500Y117500D02*
X205500Y110000D01*
D11*
X153804Y114418D02*
X153804Y142358D01*
X166504Y142358D01*
X166504Y114418D01*
X153804Y114418D01*
X136804Y114618D02*
X136804Y142558D01*
X149504Y142558D01*
X149504Y114618D01*
X136804Y114618D01*
D15*
X170510Y79878D02*
X170512Y79941D01*
X170518Y80003D01*
X170528Y80065D01*
X170541Y80127D01*
X170559Y80187D01*
X170580Y80246D01*
X170605Y80304D01*
X170634Y80360D01*
X170666Y80414D01*
X170701Y80466D01*
X170739Y80515D01*
X170781Y80563D01*
X170825Y80607D01*
X170873Y80649D01*
X170922Y80687D01*
X170974Y80722D01*
X171028Y80754D01*
X171084Y80783D01*
X171142Y80808D01*
X171201Y80829D01*
X171261Y80847D01*
X171323Y80860D01*
X171385Y80870D01*
X171447Y80876D01*
X171510Y80878D01*
X171573Y80876D01*
X171635Y80870D01*
X171697Y80860D01*
X171759Y80847D01*
X171819Y80829D01*
X171878Y80808D01*
X171936Y80783D01*
X171992Y80754D01*
X172046Y80722D01*
X172098Y80687D01*
X172147Y80649D01*
X172195Y80607D01*
X172239Y80563D01*
X172281Y80515D01*
X172319Y80466D01*
X172354Y80414D01*
X172386Y80360D01*
X172415Y80304D01*
X172440Y80246D01*
X172461Y80187D01*
X172479Y80127D01*
X172492Y80065D01*
X172502Y80003D01*
X172508Y79941D01*
X172510Y79878D01*
X172508Y79815D01*
X172502Y79753D01*
X172492Y79691D01*
X172479Y79629D01*
X172461Y79569D01*
X172440Y79510D01*
X172415Y79452D01*
X172386Y79396D01*
X172354Y79342D01*
X172319Y79290D01*
X172281Y79241D01*
X172239Y79193D01*
X172195Y79149D01*
X172147Y79107D01*
X172098Y79069D01*
X172046Y79034D01*
X171992Y79002D01*
X171936Y78973D01*
X171878Y78948D01*
X171819Y78927D01*
X171759Y78909D01*
X171697Y78896D01*
X171635Y78886D01*
X171573Y78880D01*
X171510Y78878D01*
X171447Y78880D01*
X171385Y78886D01*
X171323Y78896D01*
X171261Y78909D01*
X171201Y78927D01*
X171142Y78948D01*
X171084Y78973D01*
X171028Y79002D01*
X170974Y79034D01*
X170922Y79069D01*
X170873Y79107D01*
X170825Y79149D01*
X170781Y79193D01*
X170739Y79241D01*
X170701Y79290D01*
X170666Y79342D01*
X170634Y79396D01*
X170605Y79452D01*
X170580Y79510D01*
X170559Y79569D01*
X170541Y79629D01*
X170528Y79691D01*
X170518Y79753D01*
X170512Y79815D01*
X170510Y79878D01*
D11*
X163510Y76378D02*
X163510Y73378D01*
X141510Y73378D01*
X141510Y76378D01*
X163510Y96378D02*
X163510Y99378D01*
X141510Y99378D01*
X141510Y96378D01*
X104416Y105600D02*
X104416Y77660D01*
X91716Y77660D01*
X91716Y105600D01*
X104416Y105600D01*
X70562Y71265D02*
X70562Y67455D01*
X74372Y54755D02*
X83262Y54755D01*
X83262Y62375D01*
X83262Y76345D02*
X83262Y83965D01*
X74372Y83965D01*
X88120Y100418D02*
X60180Y100418D01*
X88120Y100418D02*
X88120Y87718D01*
X60180Y87718D01*
X60180Y100418D01*
X50800Y27700D02*
X50800Y2300D01*
X50800Y27700D02*
X203200Y27700D01*
X203200Y2300D01*
X50800Y2300D01*
M02*
