G04 EAGLE Gerber RS-274X export*
G75*
%MOMM*%
%FSLAX34Y34*%
%LPD*%
%AMOC8*
5,1,8,0,0,1.08239X$1,22.5*%
G01*
%ADD10C,0.025400*%
%ADD11C,0.000000*%


D10*
X0Y0D02*
X254000Y0D01*
X254000Y180000D01*
X0Y180000D01*
X0Y0D01*
D11*
X10400Y50000D02*
X10405Y50368D01*
X10418Y50736D01*
X10441Y51103D01*
X10472Y51470D01*
X10513Y51836D01*
X10562Y52201D01*
X10621Y52564D01*
X10688Y52926D01*
X10764Y53287D01*
X10850Y53645D01*
X10943Y54001D01*
X11046Y54354D01*
X11157Y54705D01*
X11277Y55053D01*
X11405Y55398D01*
X11542Y55740D01*
X11687Y56079D01*
X11840Y56413D01*
X12002Y56744D01*
X12171Y57071D01*
X12349Y57393D01*
X12534Y57712D01*
X12727Y58025D01*
X12928Y58334D01*
X13136Y58637D01*
X13352Y58935D01*
X13575Y59228D01*
X13805Y59516D01*
X14042Y59798D01*
X14286Y60073D01*
X14536Y60343D01*
X14793Y60607D01*
X15057Y60864D01*
X15327Y61114D01*
X15602Y61358D01*
X15884Y61595D01*
X16172Y61825D01*
X16465Y62048D01*
X16763Y62264D01*
X17066Y62472D01*
X17375Y62673D01*
X17688Y62866D01*
X18007Y63051D01*
X18329Y63229D01*
X18656Y63398D01*
X18987Y63560D01*
X19321Y63713D01*
X19660Y63858D01*
X20002Y63995D01*
X20347Y64123D01*
X20695Y64243D01*
X21046Y64354D01*
X21399Y64457D01*
X21755Y64550D01*
X22113Y64636D01*
X22474Y64712D01*
X22836Y64779D01*
X23199Y64838D01*
X23564Y64887D01*
X23930Y64928D01*
X24297Y64959D01*
X24664Y64982D01*
X25032Y64995D01*
X25400Y65000D01*
X25768Y64995D01*
X26136Y64982D01*
X26503Y64959D01*
X26870Y64928D01*
X27236Y64887D01*
X27601Y64838D01*
X27964Y64779D01*
X28326Y64712D01*
X28687Y64636D01*
X29045Y64550D01*
X29401Y64457D01*
X29754Y64354D01*
X30105Y64243D01*
X30453Y64123D01*
X30798Y63995D01*
X31140Y63858D01*
X31479Y63713D01*
X31813Y63560D01*
X32144Y63398D01*
X32471Y63229D01*
X32793Y63051D01*
X33112Y62866D01*
X33425Y62673D01*
X33734Y62472D01*
X34037Y62264D01*
X34335Y62048D01*
X34628Y61825D01*
X34916Y61595D01*
X35198Y61358D01*
X35473Y61114D01*
X35743Y60864D01*
X36007Y60607D01*
X36264Y60343D01*
X36514Y60073D01*
X36758Y59798D01*
X36995Y59516D01*
X37225Y59228D01*
X37448Y58935D01*
X37664Y58637D01*
X37872Y58334D01*
X38073Y58025D01*
X38266Y57712D01*
X38451Y57393D01*
X38629Y57071D01*
X38798Y56744D01*
X38960Y56413D01*
X39113Y56079D01*
X39258Y55740D01*
X39395Y55398D01*
X39523Y55053D01*
X39643Y54705D01*
X39754Y54354D01*
X39857Y54001D01*
X39950Y53645D01*
X40036Y53287D01*
X40112Y52926D01*
X40179Y52564D01*
X40238Y52201D01*
X40287Y51836D01*
X40328Y51470D01*
X40359Y51103D01*
X40382Y50736D01*
X40395Y50368D01*
X40400Y50000D01*
X40395Y49632D01*
X40382Y49264D01*
X40359Y48897D01*
X40328Y48530D01*
X40287Y48164D01*
X40238Y47799D01*
X40179Y47436D01*
X40112Y47074D01*
X40036Y46713D01*
X39950Y46355D01*
X39857Y45999D01*
X39754Y45646D01*
X39643Y45295D01*
X39523Y44947D01*
X39395Y44602D01*
X39258Y44260D01*
X39113Y43921D01*
X38960Y43587D01*
X38798Y43256D01*
X38629Y42929D01*
X38451Y42607D01*
X38266Y42288D01*
X38073Y41975D01*
X37872Y41666D01*
X37664Y41363D01*
X37448Y41065D01*
X37225Y40772D01*
X36995Y40484D01*
X36758Y40202D01*
X36514Y39927D01*
X36264Y39657D01*
X36007Y39393D01*
X35743Y39136D01*
X35473Y38886D01*
X35198Y38642D01*
X34916Y38405D01*
X34628Y38175D01*
X34335Y37952D01*
X34037Y37736D01*
X33734Y37528D01*
X33425Y37327D01*
X33112Y37134D01*
X32793Y36949D01*
X32471Y36771D01*
X32144Y36602D01*
X31813Y36440D01*
X31479Y36287D01*
X31140Y36142D01*
X30798Y36005D01*
X30453Y35877D01*
X30105Y35757D01*
X29754Y35646D01*
X29401Y35543D01*
X29045Y35450D01*
X28687Y35364D01*
X28326Y35288D01*
X27964Y35221D01*
X27601Y35162D01*
X27236Y35113D01*
X26870Y35072D01*
X26503Y35041D01*
X26136Y35018D01*
X25768Y35005D01*
X25400Y35000D01*
X25032Y35005D01*
X24664Y35018D01*
X24297Y35041D01*
X23930Y35072D01*
X23564Y35113D01*
X23199Y35162D01*
X22836Y35221D01*
X22474Y35288D01*
X22113Y35364D01*
X21755Y35450D01*
X21399Y35543D01*
X21046Y35646D01*
X20695Y35757D01*
X20347Y35877D01*
X20002Y36005D01*
X19660Y36142D01*
X19321Y36287D01*
X18987Y36440D01*
X18656Y36602D01*
X18329Y36771D01*
X18007Y36949D01*
X17688Y37134D01*
X17375Y37327D01*
X17066Y37528D01*
X16763Y37736D01*
X16465Y37952D01*
X16172Y38175D01*
X15884Y38405D01*
X15602Y38642D01*
X15327Y38886D01*
X15057Y39136D01*
X14793Y39393D01*
X14536Y39657D01*
X14286Y39927D01*
X14042Y40202D01*
X13805Y40484D01*
X13575Y40772D01*
X13352Y41065D01*
X13136Y41363D01*
X12928Y41666D01*
X12727Y41975D01*
X12534Y42288D01*
X12349Y42607D01*
X12171Y42929D01*
X12002Y43256D01*
X11840Y43587D01*
X11687Y43921D01*
X11542Y44260D01*
X11405Y44602D01*
X11277Y44947D01*
X11157Y45295D01*
X11046Y45646D01*
X10943Y45999D01*
X10850Y46355D01*
X10764Y46713D01*
X10688Y47074D01*
X10621Y47436D01*
X10562Y47799D01*
X10513Y48164D01*
X10472Y48530D01*
X10441Y48897D01*
X10418Y49264D01*
X10405Y49632D01*
X10400Y50000D01*
X213600Y50000D02*
X213605Y50368D01*
X213618Y50736D01*
X213641Y51103D01*
X213672Y51470D01*
X213713Y51836D01*
X213762Y52201D01*
X213821Y52564D01*
X213888Y52926D01*
X213964Y53287D01*
X214050Y53645D01*
X214143Y54001D01*
X214246Y54354D01*
X214357Y54705D01*
X214477Y55053D01*
X214605Y55398D01*
X214742Y55740D01*
X214887Y56079D01*
X215040Y56413D01*
X215202Y56744D01*
X215371Y57071D01*
X215549Y57393D01*
X215734Y57712D01*
X215927Y58025D01*
X216128Y58334D01*
X216336Y58637D01*
X216552Y58935D01*
X216775Y59228D01*
X217005Y59516D01*
X217242Y59798D01*
X217486Y60073D01*
X217736Y60343D01*
X217993Y60607D01*
X218257Y60864D01*
X218527Y61114D01*
X218802Y61358D01*
X219084Y61595D01*
X219372Y61825D01*
X219665Y62048D01*
X219963Y62264D01*
X220266Y62472D01*
X220575Y62673D01*
X220888Y62866D01*
X221207Y63051D01*
X221529Y63229D01*
X221856Y63398D01*
X222187Y63560D01*
X222521Y63713D01*
X222860Y63858D01*
X223202Y63995D01*
X223547Y64123D01*
X223895Y64243D01*
X224246Y64354D01*
X224599Y64457D01*
X224955Y64550D01*
X225313Y64636D01*
X225674Y64712D01*
X226036Y64779D01*
X226399Y64838D01*
X226764Y64887D01*
X227130Y64928D01*
X227497Y64959D01*
X227864Y64982D01*
X228232Y64995D01*
X228600Y65000D01*
X228968Y64995D01*
X229336Y64982D01*
X229703Y64959D01*
X230070Y64928D01*
X230436Y64887D01*
X230801Y64838D01*
X231164Y64779D01*
X231526Y64712D01*
X231887Y64636D01*
X232245Y64550D01*
X232601Y64457D01*
X232954Y64354D01*
X233305Y64243D01*
X233653Y64123D01*
X233998Y63995D01*
X234340Y63858D01*
X234679Y63713D01*
X235013Y63560D01*
X235344Y63398D01*
X235671Y63229D01*
X235993Y63051D01*
X236312Y62866D01*
X236625Y62673D01*
X236934Y62472D01*
X237237Y62264D01*
X237535Y62048D01*
X237828Y61825D01*
X238116Y61595D01*
X238398Y61358D01*
X238673Y61114D01*
X238943Y60864D01*
X239207Y60607D01*
X239464Y60343D01*
X239714Y60073D01*
X239958Y59798D01*
X240195Y59516D01*
X240425Y59228D01*
X240648Y58935D01*
X240864Y58637D01*
X241072Y58334D01*
X241273Y58025D01*
X241466Y57712D01*
X241651Y57393D01*
X241829Y57071D01*
X241998Y56744D01*
X242160Y56413D01*
X242313Y56079D01*
X242458Y55740D01*
X242595Y55398D01*
X242723Y55053D01*
X242843Y54705D01*
X242954Y54354D01*
X243057Y54001D01*
X243150Y53645D01*
X243236Y53287D01*
X243312Y52926D01*
X243379Y52564D01*
X243438Y52201D01*
X243487Y51836D01*
X243528Y51470D01*
X243559Y51103D01*
X243582Y50736D01*
X243595Y50368D01*
X243600Y50000D01*
X243595Y49632D01*
X243582Y49264D01*
X243559Y48897D01*
X243528Y48530D01*
X243487Y48164D01*
X243438Y47799D01*
X243379Y47436D01*
X243312Y47074D01*
X243236Y46713D01*
X243150Y46355D01*
X243057Y45999D01*
X242954Y45646D01*
X242843Y45295D01*
X242723Y44947D01*
X242595Y44602D01*
X242458Y44260D01*
X242313Y43921D01*
X242160Y43587D01*
X241998Y43256D01*
X241829Y42929D01*
X241651Y42607D01*
X241466Y42288D01*
X241273Y41975D01*
X241072Y41666D01*
X240864Y41363D01*
X240648Y41065D01*
X240425Y40772D01*
X240195Y40484D01*
X239958Y40202D01*
X239714Y39927D01*
X239464Y39657D01*
X239207Y39393D01*
X238943Y39136D01*
X238673Y38886D01*
X238398Y38642D01*
X238116Y38405D01*
X237828Y38175D01*
X237535Y37952D01*
X237237Y37736D01*
X236934Y37528D01*
X236625Y37327D01*
X236312Y37134D01*
X235993Y36949D01*
X235671Y36771D01*
X235344Y36602D01*
X235013Y36440D01*
X234679Y36287D01*
X234340Y36142D01*
X233998Y36005D01*
X233653Y35877D01*
X233305Y35757D01*
X232954Y35646D01*
X232601Y35543D01*
X232245Y35450D01*
X231887Y35364D01*
X231526Y35288D01*
X231164Y35221D01*
X230801Y35162D01*
X230436Y35113D01*
X230070Y35072D01*
X229703Y35041D01*
X229336Y35018D01*
X228968Y35005D01*
X228600Y35000D01*
X228232Y35005D01*
X227864Y35018D01*
X227497Y35041D01*
X227130Y35072D01*
X226764Y35113D01*
X226399Y35162D01*
X226036Y35221D01*
X225674Y35288D01*
X225313Y35364D01*
X224955Y35450D01*
X224599Y35543D01*
X224246Y35646D01*
X223895Y35757D01*
X223547Y35877D01*
X223202Y36005D01*
X222860Y36142D01*
X222521Y36287D01*
X222187Y36440D01*
X221856Y36602D01*
X221529Y36771D01*
X221207Y36949D01*
X220888Y37134D01*
X220575Y37327D01*
X220266Y37528D01*
X219963Y37736D01*
X219665Y37952D01*
X219372Y38175D01*
X219084Y38405D01*
X218802Y38642D01*
X218527Y38886D01*
X218257Y39136D01*
X217993Y39393D01*
X217736Y39657D01*
X217486Y39927D01*
X217242Y40202D01*
X217005Y40484D01*
X216775Y40772D01*
X216552Y41065D01*
X216336Y41363D01*
X216128Y41666D01*
X215927Y41975D01*
X215734Y42288D01*
X215549Y42607D01*
X215371Y42929D01*
X215202Y43256D01*
X215040Y43587D01*
X214887Y43921D01*
X214742Y44260D01*
X214605Y44602D01*
X214477Y44947D01*
X214357Y45295D01*
X214246Y45646D01*
X214143Y45999D01*
X214050Y46355D01*
X213964Y46713D01*
X213888Y47074D01*
X213821Y47436D01*
X213762Y47799D01*
X213713Y48164D01*
X213672Y48530D01*
X213641Y48897D01*
X213618Y49264D01*
X213605Y49632D01*
X213600Y50000D01*
M02*
